<svg id="Layer_1" data-name="Layer 1" xmlns="http://www.w3.org/2000/svg" viewBox="0 0 707.37 530.27"><defs><style>.cls-1{fill:#fff;}.cls-2{fill:#1013ef;}</style></defs><title>Gpa</title><path class="cls-1" d="M750.2,553.65H42.83V23.38H750.2ZM45.56,318.37a4.69,4.69,0,0,0,4.84,1.7c5.6-1,11.16-2.24,16-5.48a73.14,73.14,0,0,0,8.9-6.66,8,8,0,0,1,5.9-2.18c9.39.34,18.79-.08,28.19,0a158.12,158.12,0,0,1,32,3.79c8.5,1.82,17,3.49,25.88,3A51.22,51.22,0,0,0,185.55,308c7.24-3.23,14.47-6.5,21.55-10.07,8.45-4.26,17.44-6,26.74-6.18s18.46-.11,27.69.06c5.36.1,10.7.1,16-.18,7.42-.38,14.84-.22,22.26-.09a20.9,20.9,0,0,1,4.1.51,37.82,37.82,0,0,0,9.25.84c2.33,0,4.66,0,7,.1,7.17.36,14.09-1.08,20.91-3a34.18,34.18,0,0,0,10.62-4.69c4.26-3,9-5.14,13.6-7.45,3.41-1.7,7-3.08,10.94-2.55,4.54.63,9.1.8,13.66,1.14,5.51.42,10.89,1.76,16.31,2.76a61.33,61.33,0,0,0,18,.73c9.26-1,18.36-3.13,27.63-4.12,6.91-.74,13.86-.51,19.89,3a123.61,123.61,0,0,0,12.86,6.46,2.53,2.53,0,0,1,.23.12,17.73,17.73,0,0,0,8.18,2.13c15.32.52,30.54-.24,45.56-3.49a10,10,0,0,1,8.18,1.27,6.71,6.71,0,0,0,6.88.45,191.81,191.81,0,0,0,20.61-10.24c3.52-2,7.18-3.76,10.73-5.7,1.77-1,3.93-1.22,5.47-.15,2.51,1.75,4.92,3.85,5.41,7.24.33,2.22.59,4.45,1,6.65,1.16,6.08,3.62,8.16,9.72,7.14,4-.67,8.21-1.82,11.53-4.23,5.18-3.74,10.79-6.78,16-10.45s10.64-7.66,16.5-10.66a13.41,13.41,0,0,0,2.11-1.49,49.77,49.77,0,0,1,14.84-7.76c4.64-1.58,9.25-3.34,14.16-4,2-.28,3.81-2.13,6.1-.9.3.16.72-.38.76-.86s-.29-.78-.74-.88a7.12,7.12,0,0,0-3.58,0,22.09,22.09,0,0,1-3,.66,71.56,71.56,0,0,0-24.21,7.94c-5.85,3.28-11.4,7.1-17.11,10.65-6.43,4-12.5,8.55-19,12.48a60.79,60.79,0,0,1-11.63,5.89,15.61,15.61,0,0,1-5.26,1,3.63,3.63,0,0,1-3.78-2.86,21.78,21.78,0,0,1-1.07-5.84,15,15,0,0,0-4.23-10c-3.28-3.51-7-4.64-11.35-2.68-2.9,1.32-5.8,2.68-8.55,4.28-6.94,4.05-14.18,7.49-21.46,10.86-2,.94-3.79,1.19-5.79-.16a11.35,11.35,0,0,0-8.94-1.53c-1.77.37-3.58.57-5.37.85-7.76,1.19-15.48,2.65-23.38,2.58-5.09-.05-10.18-.07-15.27,0-6.52.08-11.76-3.47-17.39-5.93a2,2,0,0,1-.41-.31,18.78,18.78,0,0,0-5.6-3.16A39,39,0,0,0,453.1,272c-5.65.56-11.32,1.21-16.92,2.26a117.22,117.22,0,0,1-16.39,2.24c-7.53.32-14.69-1.85-22-2.87a76,76,0,0,0-10.52-1.21,54.59,54.59,0,0,1-8.76-.72,20,20,0,0,0-9.21.61,65,65,0,0,0-17.16,8.33,48.82,48.82,0,0,1-24.47,8.3c-7.94.55-16,1-24-.86a15.69,15.69,0,0,0-3.35-.36c-7.16-.1-14.32-.39-21.48,0-5.69.31-11.38.28-17.07.31-12.16.08-24.32-.44-36.47.74a49.27,49.27,0,0,0-15.2,4c-8.28,3.64-16.54,7.38-24.61,11.47-8.83,4.47-18.15,5.37-27.71,4.4a137.77,137.77,0,0,1-15.5-2.93c-10.55-2.35-21.14-4.28-32-3.93-2.06.07-4.14-.08-6.21-.17a87.78,87.78,0,0,0-11.12,0,66.61,66.61,0,0,1-10.08.27c-4.35-.3-7.82,1.25-11.07,4-5.63,4.82-11.91,8.53-19.38,9.81-1.18.21-2.38.43-3.54.73S46.35,317.06,45.56,318.37Z" transform="translate(-42.83 -23.38)"/><path class="cls-2" d="M45.56,318.37c.79-1.31,2.07-1.62,3.32-1.94s2.36-.52,3.54-.73c7.47-1.28,13.75-5,19.38-9.81,3.25-2.79,6.72-4.34,11.07-4A66.61,66.61,0,0,0,93,301.58a87.78,87.78,0,0,1,11.12,0c2.07.09,4.15.24,6.21.17,10.88-.35,21.47,1.58,32,3.93a137.77,137.77,0,0,0,15.5,2.93c9.56,1,18.88.07,27.71-4.4,8.07-4.09,16.33-7.83,24.61-11.47a49.27,49.27,0,0,1,15.2-4c12.15-1.18,24.31-.66,36.47-.74,5.69,0,11.38,0,17.07-.31,7.16-.38,14.32-.09,21.48,0a15.69,15.69,0,0,1,3.35.36c7.93,1.81,16,1.41,24,.86a48.82,48.82,0,0,0,24.47-8.3,65,65,0,0,1,17.16-8.33,20,20,0,0,1,9.21-.61,54.59,54.59,0,0,0,8.76.72,76,76,0,0,1,10.52,1.21c7.33,1,14.49,3.19,22,2.87a117.22,117.22,0,0,0,16.39-2.24c5.6-1,11.27-1.7,16.92-2.26a39,39,0,0,1,18.35,2.13,18.78,18.78,0,0,1,5.6,3.16,2,2,0,0,0,.41.31c5.63,2.46,10.87,6,17.39,5.93,5.09-.06,10.18,0,15.27,0,7.9.07,15.62-1.39,23.38-2.58,1.79-.28,3.6-.48,5.37-.85a11.35,11.35,0,0,1,8.94,1.53c2,1.35,3.76,1.1,5.79.16,7.28-3.37,14.52-6.81,21.46-10.86,2.75-1.6,5.65-3,8.55-4.28,4.32-2,8.07-.83,11.35,2.68a15,15,0,0,1,4.23,10,21.78,21.78,0,0,0,1.07,5.84A3.63,3.63,0,0,0,604,288a15.61,15.61,0,0,0,5.26-1,60.79,60.79,0,0,0,11.63-5.89c6.51-3.93,12.58-8.47,19-12.48,5.71-3.55,11.26-7.37,17.11-10.65a71.56,71.56,0,0,1,24.21-7.94,22.09,22.09,0,0,0,3-.66,7.12,7.12,0,0,1,3.58,0c.45.1.79.34.74.88s-.46,1-.76.86c-2.29-1.23-4.07.62-6.1.9-4.91.66-9.52,2.42-14.16,4a49.77,49.77,0,0,0-14.84,7.76,13.41,13.41,0,0,1-2.11,1.49c-5.86,3-11.15,6.9-16.5,10.66s-10.83,6.71-16,10.45c-3.32,2.41-7.52,3.56-11.53,4.23-6.1,1-8.56-1.06-9.72-7.14-.42-2.2-.68-4.43-1-6.65-.49-3.39-2.9-5.49-5.41-7.24-1.54-1.07-3.7-.81-5.47.15-3.55,1.94-7.21,3.67-10.73,5.7a191.81,191.81,0,0,1-20.61,10.24,6.71,6.71,0,0,1-6.88-.45,10,10,0,0,0-8.18-1.27c-15,3.25-30.24,4-45.56,3.49a17.73,17.73,0,0,1-8.18-2.13,2.53,2.53,0,0,0-.23-.12,123.61,123.61,0,0,1-12.86-6.46c-6-3.51-13-3.74-19.89-3-9.27,1-18.37,3.08-27.63,4.12a61.33,61.33,0,0,1-18-.73c-5.42-1-10.8-2.34-16.31-2.76-4.56-.34-9.12-.51-13.66-1.14-3.9-.53-7.53.85-10.94,2.55-4.63,2.31-9.34,4.43-13.6,7.45A34.18,34.18,0,0,1,341.08,290c-6.82,1.91-13.74,3.35-20.91,3-2.33-.12-4.66-.14-7-.1a37.82,37.82,0,0,1-9.25-.84,20.9,20.9,0,0,0-4.1-.51c-7.42-.13-14.84-.29-22.26.09-5.34.28-10.68.28-16,.18-9.23-.17-18.47-.28-27.69-.06s-18.29,1.92-26.74,6.18c-7.08,3.57-14.31,6.84-21.55,10.07a51.22,51.22,0,0,1-18.21,4.49c-8.85.52-17.38-1.15-25.88-3a158.12,158.12,0,0,0-32-3.79c-9.4-.07-18.8.35-28.19,0a8,8,0,0,0-5.9,2.18,73.14,73.14,0,0,1-8.9,6.66c-4.87,3.24-10.43,4.46-16,5.48A4.69,4.69,0,0,1,45.56,318.37Z" transform="translate(-42.83 -23.38)"/></svg>