<?xml version="1.0" encoding="utf-8"?>
<!-- Generator: Adobe Illustrator 23.0.2, SVG Export Plug-In . SVG Version: 6.00 Build 0)  -->
<svg version="1.1" id="Layer_1" xmlns="http://www.w3.org/2000/svg" xmlns:xlink="http://www.w3.org/1999/xlink" x="0px" y="0px"
	 viewBox="0 0 792 576" style="enable-background:new 0 0 792 576;" xml:space="preserve">
<style type="text/css">
	.st0{fill:#FFFFFF;}
	.st1{fill:#FCBA2B;}
</style>
<g>
	<g>
		<path class="st0" d="M52.16,30.24c229.63,0,459.25,0,688.88,0c0,172.18,0,344.36,0,516.53c-229.63,0-459.25,0-688.88,0
			C52.16,374.59,52.16,202.42,52.16,30.24z M255.84,286.44c-6.31-0.21-12.01-0.29-17.64,1.03c-2.87,0.67-5.54,1.97-8.46,2.45
			c-3.28,0.53-6.25,1.83-9.15,3.41c-6.7,3.66-13.44,7.25-20.17,10.84c-1.26,0.67-2.57,1.23-3.88,1.81
			c-5.45,2.41-10.9,4.81-16.35,7.22c-4.47,1.98-9.06,3.64-13.9,4.36c-7.97,1.19-16.03,1.66-24.06,2.2
			c-6.28,0.42-12.54,1.14-18.85,1.03c-1.1-0.02-2.16,0.28-3.18,0.71c-0.38,0.16-0.75,0.38-1.08,0.63c-0.26,0.2-0.46,0.51-0.28,0.87
			c0.18,0.38,0.55,0.37,0.86,0.26c2.78-1.01,5.66-0.5,8.5-0.59c1.85-0.06,3.7,0,5.54-0.1c7.37-0.4,14.75-0.75,22.11-1.41
			c6.28-0.56,12.53-1.16,18.58-3.13c3.77-1.23,7.29-3.02,10.96-4.44c9.25-3.58,18.04-8.15,26.94-12.49
			c0.75-0.37,1.45-0.84,2.18-1.25c5.73-3.17,11.38-6.51,18.06-7.38c1.15-0.15,2.25-0.66,3.38-1c3.55-1.08,7.2-1.86,10.89-1.83
			c8.55,0.06,17.12-0.01,25.62,1.38c4.84,0.79,9.58,1.85,13.87,4.3c2.38,1.36,4.88,2.28,7.57,2.57c5.55,0.6,10.83,2.15,16.12,3.86
			c3.97,1.28,7.16,3.11,9.82,6.48c3.82,4.85,9.13,6.3,15.16,4.68c1.62-0.43,3.28-0.83,4.8-1.5c5.24-2.32,10.77-3.74,16.18-5.57
			c3.21-1.09,6.48-1.69,9.87-1.81c10.37-0.35,20.62,0.69,30.83,2.42c5.79,0.99,11.53,2.27,17.45,2.43
			c4.61,0.13,9.23,0.27,13.83,0.61c10.5,0.76,20.92,0.76,31.36-1.1c10.98-1.96,22.01-3.8,33.27-3.33c2.96,0.12,5.93,0.24,8.69,1.21
			c4.37,1.53,8.86,2.56,13.31,3.79c7.1,1.95,14.33,1.91,21.51,1.34c7.11-0.56,14.12-2.07,21.12-3.43c8.41-1.63,16.81-3.2,25.39-3.67
			c6.56-0.36,12.94-0.04,18.94,2.89c3.25,1.59,6.63,2.85,9.98,4.2c2.75,1.11,5.64,1.43,8.4,0.65c4.67-1.32,9.38-2.62,13.85-4.57
			c1.15-0.5,2.15-0.66,3.37-0.29c3.83,1.17,7.75,1.47,11.71,0.88c2.42-0.36,4.85-0.48,7.28-0.41c4.14,0.13,8.2-0.5,12.25-1.24
			c1.24-0.23,2.47-0.47,3.72-0.67c8.29-1.32,16.57-2.66,24.87-3.93c2.31-0.35,4.35-1.2,6.21-2.56c1.97-1.43,3.93-2.88,5.93-4.25
			c1.54-1.05,3.21-1.78,5.12-1.94c3.44-0.3,6.67,0.13,9.58,2.21c1.29,0.92,2.87,1.46,4.11,2.42c3.21,2.49,6.42,1.66,10.01-0.63
			c0.57-0.36,1.14-0.82,0.91-1.62c-0.2-0.71-0.78-1.06-1.46-1.26c-1.09-0.31-2.16-0.1-3.23,0.18c-1.17,0.31-2.29,0.31-3.39-0.37
			c-1.42-0.88-3.01-1.53-4.36-2.51c-3.76-2.75-7.96-3.33-12.44-2.96c-2.05,0.17-3.94,0.71-5.73,1.72c-2.58,1.44-4.87,3.29-7.21,5.06
			c-1.73,1.31-3.63,1.97-5.74,2.35c-8.27,1.47-16.6,2.51-24.88,3.85c-5.73,0.93-11.45,1.76-17.28,1.51c-1.08-0.05-2.2-0.02-3.26,0.2
			c-4.39,0.88-8.69,0.42-12.95-0.78c-1.1-0.31-2.18-0.33-3.18,0.22c-4.31,2.38-9.21,3.11-13.73,4.93c-2.15,0.87-4.41,0.78-6.63-0.15
			c-3.33-1.39-6.7-2.68-9.98-4.19c-4.22-1.93-8.66-3.34-13.33-3.43c-6.13-0.12-12.27,0.26-18.33,1.19
			c-10.12,1.56-20.12,3.82-30.24,5.43c-12.64,2.01-24.93,0.76-36.93-3.6c-3.51-1.27-7.14-2-10.83-2.07
			c-4.36-0.09-8.73,0.11-13.09,0.37c-6.72,0.41-13.3,1.82-19.94,2.82c-7.81,1.17-15.57,2.59-23.53,2.03
			c-5.78-0.41-11.56-0.76-17.36-0.83c-6.31-0.09-12.55-0.73-18.78-1.82c-11.34-1.98-22.74-3.48-34.3-3.11
			c-3.12,0.1-6.26,0.24-9.21,1.21c-5.73,1.9-11.65,3.22-17.18,5.74c-2.13,0.97-4.4,1.68-6.68,2.24c-4.55,1.13-8.47-0.02-11.51-3.73
			c-0.53-0.65-1.06-1.31-1.54-1.99c-1.32-1.84-3.1-3.06-5.21-3.8c-7.13-2.5-14.26-5.04-21.87-5.73c-1.79-0.16-3.44-0.75-5-1.63
			c-4.22-2.38-8.8-3.72-13.53-4.57C268.5,286.76,261.92,286.03,255.84,286.44z"/>
		<path class="st1" d="M255.84,286.44c6.07-0.41,12.66,0.32,19.2,1.51c4.73,0.86,9.31,2.19,13.53,4.57c1.55,0.87,3.21,1.46,5,1.63
			c7.61,0.69,14.73,3.23,21.87,5.73c2.11,0.74,3.89,1.95,5.21,3.8c0.49,0.68,1.01,1.34,1.54,1.99c3.03,3.71,6.95,4.86,11.51,3.73
			c2.27-0.56,4.55-1.28,6.68-2.24c5.53-2.51,11.45-3.84,17.18-5.74c2.95-0.98,6.09-1.11,9.21-1.21c11.56-0.37,22.96,1.13,34.3,3.11
			c6.22,1.09,12.47,1.74,18.78,1.82c5.8,0.08,11.58,0.43,17.36,0.83c7.95,0.56,15.72-0.86,23.53-2.03c6.64-1,13.22-2.41,19.94-2.82
			c4.36-0.26,8.73-0.46,13.09-0.37c3.69,0.07,7.33,0.8,10.83,2.07c12,4.36,24.29,5.61,36.93,3.6c10.12-1.61,20.12-3.87,30.24-5.43
			c6.06-0.94,12.19-1.32,18.33-1.19c4.67,0.09,9.11,1.5,13.33,3.43c3.29,1.51,6.65,2.8,9.98,4.19c2.22,0.93,4.48,1.02,6.63,0.15
			c4.51-1.82,9.42-2.54,13.73-4.93c1.01-0.56,2.08-0.53,3.18-0.22c4.26,1.2,8.55,1.66,12.95,0.78c1.06-0.21,2.18-0.24,3.26-0.2
			c5.83,0.25,11.55-0.58,17.28-1.51c8.28-1.34,16.62-2.38,24.88-3.85c2.12-0.38,4.02-1.04,5.74-2.35c2.34-1.77,4.63-3.62,7.21-5.06
			c1.8-1,3.68-1.55,5.73-1.72c4.48-0.37,8.69,0.21,12.44,2.96c1.34,0.99,2.93,1.63,4.36,2.51c1.1,0.68,2.22,0.68,3.39,0.37
			c1.07-0.28,2.13-0.49,3.23-0.18c0.68,0.19,1.26,0.55,1.46,1.26c0.23,0.8-0.34,1.26-0.91,1.62c-3.59,2.29-6.8,3.11-10.01,0.63
			c-1.25-0.97-2.82-1.5-4.11-2.42c-2.91-2.08-6.13-2.51-9.58-2.21c-1.91,0.16-3.58,0.89-5.12,1.94c-2.01,1.38-3.97,2.82-5.93,4.25
			c-1.87,1.36-3.91,2.21-6.21,2.56c-8.3,1.26-16.58,2.61-24.87,3.93c-1.24,0.2-2.48,0.44-3.72,0.67c-4.05,0.74-8.11,1.37-12.25,1.24
			c-2.44-0.07-4.86,0.05-7.28,0.41c-3.96,0.59-7.88,0.29-11.71-0.88c-1.21-0.37-2.21-0.21-3.37,0.29
			c-4.47,1.95-9.18,3.25-13.85,4.57c-2.76,0.78-5.65,0.46-8.4-0.65c-3.35-1.35-6.72-2.61-9.98-4.2c-6-2.93-12.38-3.25-18.94-2.89
			c-8.59,0.47-16.98,2.04-25.39,3.67c-7,1.36-14.01,2.87-21.12,3.43c-7.19,0.57-14.41,0.61-21.51-1.34
			c-4.45-1.22-8.94-2.26-13.31-3.79c-2.76-0.97-5.73-1.08-8.69-1.21c-11.25-0.47-22.28,1.37-33.27,3.33
			c-10.44,1.86-20.86,1.86-31.36,1.1c-4.6-0.33-9.22-0.48-13.83-0.61c-5.91-0.16-11.66-1.45-17.45-2.43
			c-10.21-1.74-20.46-2.78-30.83-2.42c-3.39,0.12-6.66,0.72-9.87,1.81c-5.4,1.83-10.94,3.25-16.18,5.57
			c-1.52,0.68-3.18,1.07-4.8,1.5c-6.03,1.61-11.33,0.17-15.16-4.68c-2.66-3.37-5.85-5.2-9.82-6.48c-5.29-1.71-10.58-3.26-16.12-3.86
			c-2.7-0.29-5.19-1.21-7.57-2.57c-4.29-2.44-9.03-3.51-13.87-4.3c-8.5-1.39-17.06-1.31-25.62-1.38c-3.69-0.03-7.34,0.75-10.89,1.83
			c-1.12,0.34-2.23,0.85-3.38,1c-6.68,0.87-12.33,4.21-18.06,7.38c-0.73,0.41-1.43,0.88-2.18,1.25
			c-8.89,4.35-17.68,8.91-26.94,12.49c-3.68,1.42-7.2,3.21-10.96,4.44c-6.05,1.98-12.3,2.57-18.58,3.13
			c-7.36,0.66-14.74,1.01-22.11,1.41c-1.84,0.1-3.69,0.05-5.54,0.1c-2.84,0.09-5.72-0.42-8.5,0.59c-0.31,0.11-0.67,0.12-0.86-0.26
			c-0.18-0.37,0.02-0.67,0.28-0.87c0.33-0.25,0.7-0.47,1.08-0.63c1.01-0.43,2.08-0.73,3.18-0.71c6.31,0.12,12.57-0.61,18.85-1.03
			c8.04-0.54,16.09-1.01,24.06-2.2c4.83-0.72,9.43-2.38,13.9-4.36c5.45-2.42,10.9-4.81,16.35-7.22c1.3-0.58,2.62-1.14,3.88-1.81
			c6.74-3.59,13.48-7.18,20.17-10.84c2.9-1.59,5.87-2.88,9.15-3.41c2.92-0.48,5.59-1.78,8.46-2.45
			C243.84,286.15,249.53,286.23,255.84,286.44z"/>
	</g>
</g>
</svg>
