<?xml version="1.0" encoding="utf-8"?>
<!-- Generator: Adobe Illustrator 23.0.2, SVG Export Plug-In . SVG Version: 6.00 Build 0)  -->
<svg version="1.1" id="Layer_1" xmlns="http://www.w3.org/2000/svg" xmlns:xlink="http://www.w3.org/1999/xlink" x="0px" y="0px"
	 viewBox="0 0 792 576" style="enable-background:new 0 0 792 576;" xml:space="preserve">
<style type="text/css">
	.st0{fill:#00FF0C;}
	.st1{fill:none;stroke:#00FF0C;stroke-miterlimit:10;}
	.st2{fill:#E6F1E2;}
</style>
<g>
	<g>
		<path class="st0" d="M671.27,204.29c-0.04-1.45,0.01-2.88,0.45-4.28c0.6-0.32,0.75-0.68,0.1-1.1c-0.05-1.44-0.02-2.88,0.4-4.28
			c0.81-0.49,0.82-1.04,0.13-1.65c-0.04-1.62-0.04-3.24,0.38-4.82c0.98-0.67,0.9-1.4,0.15-2.19c-0.01-0.63-0.04-1.25-0.02-1.88
			c0.16-4.31,0.24-8.61,0.05-12.92c-0.07-1.53-0.21-3.06-0.81-4.48c-1.07-2.53-3.64-3.12-5.7-1.29c-0.73,0.64-1.32,1.47-1.86,2.29
			c-2.31,3.55-4.22,7.3-5.76,11.24c-2.03,5.19-3.45,10.57-5.03,15.91c-3.03,10.24-6.48,20.35-8.85,30.78
			c-1.39,6.14-3.2,12.14-5.46,18.02c-5.75,14.9-11.85,29.66-18.22,44.3c-0.2,0.45-0.25,1.12-1.03,0.92
			c-0.04-0.08-0.11-0.14-0.12-0.22c-0.18-2.14-0.35-4.29-0.53-6.43c-0.15-1.79-0.39-3.58-1.13-5.24c-1.26-2.81-3.38-3.78-6.37-2.95
			c-1.14,0.32-2.15,0.89-3.14,1.51c-3.38,2.1-6.27,4.77-9,7.65c-7.72,8.16-15.94,15.79-24.93,22.56c-3.54,2.66-7.37,4.79-11.43,6.53
			c-1.92,0.82-3.91,1.3-6.02,1.23c-2.83-0.09-4.72-1.49-5.79-4.06c-0.59-1.42-0.84-2.93-1.13-4.43c-0.25-1.32-0.47-2.66-0.87-3.94
			c-1.49-4.79-4.89-6.51-9.59-4.87c-3.33,1.16-6.42,2.83-9.16,5.04c-3.57,2.87-7.24,5.65-10.5,8.84
			c-6.27,6.15-12.62,12.28-17.4,19.76c-0.89,1.39-1.74,2.88-3.14,3.94c-0.15-0.28-0.32-0.44-0.3-0.58c0.17-0.97,0.34-1.94,0.57-2.9
			c3-12.76,5.89-25.53,7.83-38.5c2.47-16.51,4.71-33.05,8.74-49.28c1.6-6.47,2.42-13.06,1.97-19.75c-0.16-2.35-0.46-4.66-1.68-6.72
			c-2.16-3.67-6.13-4.69-9.72-2.47c-0.98,0.61-1.88,1.38-2.73,2.18c-3.02,2.86-5.69,6.05-7.42,9.84
			c-4.51,9.87-9.35,19.61-12.76,29.94c-1.52,4.6-2.83,9.27-4.29,13.89c-3.03,9.58-6.29,19.09-8.06,29.02
			c-0.97,5.48-2.14,10.92-3.26,16.37c-2.2,10.72-4.95,21.33-6.67,32.15c-2.11,13.3-3.1,26.74-4.83,40.09
			c-0.75,5.78-1.25,11.61-2.66,17.28c-0.38,1.51-0.66,3.12-1.99,4.32c-0.86-1.04-0.97-2.23-1.23-3.34
			c-1.63-6.84-2.51-13.79-2.59-20.8c-0.24-22.89-0.03-45.78,0.74-68.67c0.78-22.97,0.98-45.95,2.3-68.9
			c0.76-13.17,1.68-26.33,3.13-39.45c0.68-6.15,1.36-12.32,1.13-18.53c-0.12-3.23-0.31-6.46-1.48-9.53
			c-1.56-4.11-4.25-4.8-7.68-1.98c-0.21,0.17-0.41,0.35-0.6,0.54c-3.26,3.13-6.05,6.62-7.97,10.75c-2.69,5.77-5.38,11.55-8.07,17.32
			c-3.68,7.91-6.01,16.33-9.09,24.46c-1.84,4.86-3.6,9.77-4.94,14.8c-2.81,10.5-4.64,21.21-6.95,31.82
			c-0.18,0.83-0.11,1.77-1.1,2.58c0-1.2,0-2.18,0-3.16c0.03-10.78-0.49-21.54-1.18-32.29c-1.32-20.6-2.4-41.22-3.52-61.83
			c-0.77-14.07-1.42-28.15-3.32-42.13c-1.03-7.56-2.28-15.08-4.27-22.46c-0.47-1.74-1.01-3.45-2-4.97c-1.54-2.35-3.83-2.94-6.3-1.63
			c-1.04,0.56-1.89,1.36-2.67,2.24c-1.81,2.03-3.17,4.34-4.23,6.84c-1.51,3.55-2.88,7.17-4.59,10.62
			c-6.66,13.49-10.97,27.87-15.86,42.02c-1.44,4.16-2.46,8.44-3.33,12.76c-0.85,4.22-1.7,8.44-2.56,12.66
			c-0.26-0.01-0.52-0.02-0.78-0.04c1.61-13.64,2.85-27.31,3.51-41.03c0.4-8.34,0.74-16.69,0.08-25.03
			c-0.16-2.07-0.45-4.12-1.42-5.98c-1.76-3.39-5.9-3.97-8.57-1.23c-0.82,0.85-1.41,1.86-1.91,2.92
			c-4.37,9.24-9.19,18.26-12.81,27.87c-3.61,9.56-8.29,18.7-11.38,28.48c-2.94,9.33-7.11,18.23-9.68,27.69
			c-2.57,9.44-5.7,18.71-8.8,27.98c-3.78,11.31-6.84,22.86-11.34,33.95c-3.24,7.98-5.41,16.36-8.73,24.32
			c-2.84,6.8-5.37,13.7-7.72,20.68c-3.18,9.45-7.46,18.47-10.77,27.87c-2.99,8.5-7.09,16.48-11.39,24.36
			c-0.9,1.66-1.94,3.24-3.21,4.64c-0.91,1-1.93,1.9-3.19,2.43c-1.79,0.76-2.84,0.39-3.81-1.32c-0.89-1.58-1.35-3.32-1.74-5.08
			c-1.49-6.66-1.11-13.4-0.79-20.12c0.44-9.24,1.68-18.41,2.96-27.57c1.88-13.42,3.9-26.81,7.56-39.91
			c3.04-10.89,5.58-21.92,8.69-32.78c2.27-7.93,5.22-15.66,7.67-23.54c2.27-7.29,4.69-14.51,7.52-21.6
			c2.33-5.84,4.32-11.8,5.93-17.87c0.25-0.96,0.52-1.92,0.42-2.91c-0.19-1.98-1.86-2.8-3.47-1.62c-0.78,0.57-1.44,1.36-2.02,2.15
			c-3.17,4.35-6.32,8.73-9.04,13.38c-9.9,16.89-18.92,34.22-27.45,51.85c-15.98,33.02-29.28,67.1-41.41,101.67
			c-3,8.55-5.23,17.36-8.31,25.89c-2.35,6.5-4.3,13.13-5.99,19.84c-1.05,4.18-2.12,8.35-3.73,12.36c-0.33,0.83-0.44,1.87-1.54,2.32
			c-0.28-1.48-0.05-2.82,0.12-4.14c0.54-4.18,1.1-8.37,1.75-12.53c1.89-12.06,4.07-24.07,5.78-36.16
			c1.31-9.24,2.32-18.53,3.99-27.72c1.8-9.89,3.81-19.74,5.54-29.64c3.44-19.71,6.41-39.51,11.32-58.94
			c2.75-10.88,4.31-22.02,7.04-32.9c1.72-6.87,3.8-13.66,5.08-20.65c0.34-1.86,0.56-3.74,0.41-5.63c-0.19-2.5-2-3.42-4.17-2.14
			c-0.76,0.45-1.43,1.09-2.04,1.73c-1.43,1.5-2.71,3.15-3.59,5.03c-4.22,9.02-9.03,17.77-12.53,27.11c-2.01,5.38-3.91,10.8-6.36,16
			c-2.41,5.12-4.59,10.33-6.61,15.61c-1.41,3.69-2.99,7.3-4.67,10.88c-6.18,13.15-11.96,26.49-18.09,39.68
			c-3.71,7.98-7.97,15.69-11.24,23.86c-3.52,8.78-8.67,16.72-13.01,25.08c-0.51,0.99-1.03,2.08-2.36,2.53
			c-0.18-1.1,0.07-2.06,0.24-3.02c1.53-8.94,3.1-17.86,4.56-26.81c2.11-12.93,4-25.91,7.13-38.65c2.55-10.39,4.43-20.9,5.53-31.53
			c0.52-5,1.1-10.01,0.38-15.04c-0.51-3.56-2.24-4.66-5.64-3.46c-2.86,1.01-5.17,2.84-7.16,5.1c-2.2,2.49-4.38,4.99-6.6,7.47
			c-2.22,2.48-4.18,5.16-5.89,8.02c-4.93,8.24-10.82,15.87-15.31,24.39c-0.08,0.16-0.2,0.3-0.3,0.45
			c-3.55,5.08-6.86,10.31-9.83,15.75c-2.22,4.07-5.38,7.39-8.61,10.65c-0.73,0.73-1.56,1.3-2.63,0.8c-0.96-0.45-1.02-1.4-1.02-2.31
			c-0.01-2.34,0.3-4.66,0.74-6.95c2.13-11.1,4.26-22.21,6.45-33.3c1.57-7.93,4.08-15.63,5.88-23.5c1.04-4.54,2.36-9.05,2.29-13.77
			c-0.06-3.55-1.69-4.64-5.08-3.44c-1.2,0.42-2.25,1.11-3.21,1.94c-1.23,1.06-2.28,2.28-3.29,3.55
			c-6.57,8.19-13.19,16.34-19.73,24.55c-4.64,5.82-8.62,12.14-13.44,17.83c-0.35,0.41-0.62,0.88-0.87,1.36
			c-2.33,4.48-5.24,8.57-8.28,12.58c-1.73,2.29-3.29,4.7-4.72,7.2c-1.83,3.21-3.96,6.2-6.53,8.87c-1.62,1.69-3.05,3.54-4.19,5.59
			c-1.34,2.42-3.08,4.39-5.61,5.62c-0.75,0.37-1.62,0.73-2,2.14c3.65-0.95,6.6-2.34,8.5-5.37c1.87-2.99,4.19-5.59,6.6-8.15
			c1.17-1.23,2.29-2.56,3.17-4c3.43-5.59,7.25-10.91,11.23-16.12c1.19-1.56,2.13-3.32,3.18-4.99c0.81-1.29,1.48-2.7,2.46-3.85
			c4.02-4.73,7.38-9.95,11.17-14.83c7.26-9.36,14.88-18.44,22.38-27.61c0.73-0.9,1.62-1.68,2.52-2.42c0.67-0.55,1.4-1.15,2.55-0.89
			c0.49,2.59-0.2,5.1-0.72,7.61c-1.75,8.35-4.25,16.52-6.07,24.84c-2.77,12.62-5.14,25.33-7.64,38c-0.57,2.91-1.01,5.86-0.71,8.83
			c0.39,3.84,4.38,5.71,7.64,3.64c0.6-0.38,1.14-0.87,1.66-1.37c4.06-3.86,7.52-8.16,10.28-13.07c4.84-8.6,10.83-16.5,15.53-25.2
			c0.34-0.63,0.79-1.2,1.21-1.78c2.78-3.86,5.37-7.85,7.76-11.97c1.4-2.41,3.08-4.63,4.92-6.73c2.2-2.49,4.38-5,6.54-7.52
			c1.18-1.37,2.47-2.6,4.02-3.55c2.79-1.72,3.34-1.46,3.47,1.72c0.07,1.7,0.11,3.42-0.01,5.12c-0.63,8.78-1.67,17.52-3.39,26.15
			c-1.76,8.8-3.97,17.51-5.59,26.33c-3.28,17.83-5.87,35.78-9.22,53.6c-0.21,1.14-0.4,2.31-0.4,3.47c0,2.23,1.37,3.26,3.54,2.78
			c0.99-0.22,1.81-0.78,2.57-1.42c1.39-1.17,2.52-2.58,3.39-4.15c3.43-6.2,7.19-12.26,10.15-18.68c4.21-9.13,8.65-18.14,12.79-27.3
			c5.32-11.77,10.83-23.46,16-35.3c7.43-17.02,14.69-34.11,21.41-51.42c0.94-2.42,1.99-4.81,3.11-7.16
			c2.5-5.27,5.08-10.5,7.62-15.75c0.82-1.7,1.67-3.39,2.81-4.89c0.34-0.44,0.54-1.18,1.64-0.82c-0.28,1.62-0.46,3.3-0.86,4.93
			c-1.46,6.02-3.01,12.01-4.49,18.02c-2.57,10.46-4.21,21.12-6.58,31.63c-2.3,10.15-4.75,20.27-6.47,30.55
			c-1.95,11.68-3.61,23.42-5.87,35.05c-2.02,10.4-4.12,20.78-5.62,31.26c-1.45,10.13-2.79,20.27-4.39,30.38
			c-1.84,11.61-3.94,23.18-5.86,34.78c-0.68,4.07-1.13,8.18-1.29,12.31c-0.05,1.21,0.04,2.41,1.32,2.99
			c1.36,0.62,2.43-0.09,3.39-0.98c1.13-1.05,1.96-2.34,2.69-3.68c1.46-2.7,2.49-5.57,3.34-8.5c1.59-5.52,2.86-11.14,4.72-16.57
			c6.22-18.16,11.85-36.52,18.39-54.59c13.34-36.85,28.89-72.71,46.71-107.59c5.51-10.78,11.64-21.2,17.96-31.51
			c0.36,0.01,0.73,0.02,1.09,0.02c-1.11,3.17-2.12,6.38-3.34,9.51c-2.49,6.36-4.62,12.83-6.63,19.34
			c-4.5,14.57-9.72,28.91-12.99,43.86c-2.09,9.55-5.31,18.84-7.15,28.45c-3.1,16.23-5.4,32.59-6.87,49.05
			c-0.63,7.06-0.99,14.16-0.25,21.25c0.37,3.59,1.07,7.11,2.69,10.37c1.98,3.98,5.45,5.1,9.45,3.15c1.8-0.88,3.29-2.17,4.6-3.68
			c1.23-1.43,2.32-2.98,3.22-4.64c4.1-7.48,8.04-15.04,10.96-23.08c4.9-13.49,10.18-26.84,15-40.37
			c7.53-21.12,15.6-42.05,21.95-63.58c2.64-8.95,6.18-17.61,8.59-26.64c2.27-8.51,5.05-16.84,8.24-25.04
			c1.33-3.43,2.54-6.9,3.7-10.39c2.04-6.14,4.33-12.17,7.05-18.04c2-4.32,3.84-8.71,5.45-13.18c3.03-8.39,7.63-16.03,11.28-24.13
			c0.56-1.24,1.31-2.48,2.97-2.27c1.57,0.2,1.74,1.63,2.14,2.79c0.17,0.5,0.22,1.05,0.31,1.58c0.44,2.39,0.49,4.82,0.55,7.24
			c0.27,10.33-0.14,20.65-0.8,30.95c-0.55,8.51-1.3,17-2.31,25.47c-1.74,14.62-4.24,29.13-5.84,43.77c-2.08,19.01-5,37.9-7.67,56.83
			c-0.55,3.91-0.97,7.84-0.84,11.81c0.04,1.36,0.45,2.5,1.88,2.94c1.4,0.43,2.46-0.24,3.29-1.27c1.03-1.27,1.63-2.78,2.15-4.32
			c1.27-3.76,1.91-7.66,2.55-11.55c2.14-13.04,3.06-26.21,4.18-39.35c1.3-15.21,2.82-30.39,5.54-45.42
			c2.8-15.46,5.63-30.9,11.36-45.64c2.95-7.61,4.97-15.56,8.38-23c2.58-5.63,5.12-11.27,7.33-17.06c0.93-2.44,2.17-4.74,3.96-6.68
			c2.07-2.25,3.05-2.1,4.2,0.64c0.35,0.82,0.61,1.69,0.86,2.55c1.1,3.8,1.89,7.67,2.62,11.55c2.43,12.91,3.4,25.98,4.17,39.07
			c1.25,21.33,2.36,42.66,3.96,63.97c1.52,20.25,2.46,40.5,2.02,60.81c-0.08,3.68-0.37,7.35-0.75,11.01
			c-0.79,7.5-1.41,15.01-1.85,22.54c-0.05,0.8-0.05,1.62,0.05,2.42c0.08,0.68,0.56,1.13,1.28,1.17c0.72,0.04,1.23-0.35,1.4-1.02
			c0.2-0.78,0.33-1.58,0.41-2.38c0.27-2.68,0.53-5.36,0.75-8.04c0.63-7.69,1.15-15.39,2.37-23.03c1.91-11.97,4.58-23.79,7.01-35.66
			c1.79-8.71,3.84-17.34,6.9-25.71c2.25-6.15,4.43-12.33,6.57-18.52c3.42-9.86,8.33-19.07,12.66-28.52c1.47-3.21,3.88-5.81,6.4-8.26
			c0.32-0.31,0.68-0.59,1.04-0.85c0.75-0.54,1.32-0.39,1.71,0.46c0.57,1.23,0.92,2.53,1.1,3.87c0.86,6.37,0.46,12.73-0.3,19.07
			c-2.22,18.46-3.59,36.99-4.53,55.55c-0.84,16.59-1.03,33.2-1.6,49.8c-0.7,20.46-0.93,40.93-0.94,61.4
			c-0.01,8.17-0.19,16.34,0.81,24.48c0.63,5.18,1.5,10.3,3.19,15.26c0.51,1.51,1.3,2.79,3.1,2.96c1.79,0.17,2.82-0.94,3.66-2.28
			c1.35-2.17,2.05-4.58,2.51-7.06c1.88-10.16,2.92-20.43,4.25-30.67c1.15-8.81,1.99-17.66,3.59-26.41
			c2.01-10.95,4.72-21.75,7.04-32.63c2.04-9.56,3.34-19.29,6.2-28.67c2.38-7.81,4.96-15.57,7.18-23.42
			c3.34-11.81,8.84-22.72,13.72-33.9c0.29-0.65,0.67-1.27,1.04-1.88c1.93-3.16,4.23-6.04,7.07-8.42c2.6-2.18,5.13-1.44,6.31,1.75
			c0.5,1.36,0.64,2.79,0.7,4.23c0.16,4.32-0.13,8.6-0.9,12.87c-1.23,6.81-2.98,13.49-4.53,20.23c-2.07,9.02-3.23,18.2-4.56,27.35
			c-2.39,16.45-5.95,32.66-9.76,48.83c-0.99,4.19-1.96,8.39-2.91,12.59c-0.28,1.24-0.5,2.55,0.93,3.32c1.07,0.57,2.3,0.07,3.37-1.45
			c0.77-1.1,1.43-2.28,2.08-3.46c6.95-12.44,16.1-23.07,26.75-32.46c2.22-1.96,4.53-3.82,6.82-5.69c2.6-2.11,5.44-3.82,8.64-4.84
			c1.85-0.59,2.73-0.16,3.33,1.65c0.41,1.27,0.6,2.62,0.79,3.95c0.27,1.87,0.55,3.74,1.25,5.5c1.83,4.61,5.13,7.24,10.19,7.48
			c2.93,0.14,5.72-0.44,8.39-1.6c4.8-2.08,9.25-4.74,13.38-7.96c8.95-6.97,17.1-14.8,24.82-23.08c2.09-2.24,4.29-4.34,6.87-6.01
			c2.93-1.9,3.33-1.73,3.55,1.76c0.37,5.92,0.48,11.84,0.45,17.77c0,0.89-0.03,1.82,0.17,2.68c0.57,2.45,3.15,3.23,5,1.51
			c0.58-0.54,1.02-1.25,1.43-1.94c1.33-2.24,2.4-4.62,3.32-7.06c2.79-7.39,5.87-14.66,9.13-21.86c1.37-3.02,2.5-6.15,3.68-9.25
			c1.92-5.03,3.71-10.11,5.71-15.11c2.71-6.77,4.9-13.68,6.55-20.78c0.67-2.89,1.29-5.79,2.12-8.63c3.26-11.11,6.57-22.2,9.91-33.29
			c1.09-3.61,2.46-7.13,4.24-10.47c0.4-0.75,0.67-1.62,1.46-2.08c0.77,0.53,0.58,1.2,0.57,1.77c-0.05,2.6-0.06,5.21-0.22,7.81
			c-0.85,13.36-2.41,26.64-4.24,39.9c-1.86,13.52-3.97,27-5.64,40.54c-1.8,14.61-3.22,29.27-4.77,43.91
			c-1.32,12.41-2.7,24.82-3.08,37.3c-0.24,7.9-0.44,15.8,0.71,23.66c0.1,0.71,0.22,1.43,0.43,2.1c0.39,1.22,1.19,2.07,2.56,1.96
			c1.36-0.1,2.03-1.04,2.21-2.32c0.08-0.53,0.05-1.07,0.1-1.61c0.14-1.7,0.2-3.41,0.47-5.09c2.31-14.72,4.36-29.48,7.39-44.08
			c1.26-6.06,2.38-12.15,3.69-18.2c0.71-3.28,2.02-6.35,4.25-8.91c2.19-2.51,4.24-2.12,5.4,1c0.94,2.54,1.37,5.2,1.69,7.88
			c1.23,10.18,1.51,20.41,1.57,30.65c0.02,4.04,0.13,8.08,0.54,12.1c0.17,1.7,0.43,3.4,1.19,4.95c1.22,2.5,3.68,3.29,6.09,1.91
			c0.76-0.44,1.44-1.07,2.07-1.7c1.53-1.52,2.84-3.24,4.02-5.05c1.81-2.77,4.14-4.93,7.03-6.53c2.94-1.62,5.51-3.7,7.63-6.32
			c0.66-0.81,1.35-1.62,1.66-2.71c-2.46-0.23-2.72-0.25-5.07,0.77c-6.51,2.84-12.5,6.36-16.23,12.75c-0.36,0.62-0.82,1.19-1.29,1.72
			c-0.38,0.42-0.61,1.15-1.47,0.89c-0.57-0.96-0.53-2.05-0.59-3.1c-0.2-3.41-0.4-6.81-0.48-10.22c-0.16-7.09-0.17-14.19-0.77-21.26
			c-0.44-5.19-0.77-10.39-2.07-15.46c-0.54-2.09-1.16-4.16-2.52-5.9c-1.78-2.28-4.06-3.12-6.9-2.48c-2.43,0.55-4.14,2.06-5.53,4.01
			c-2.33,3.28-3.65,6.99-4.48,10.88c-0.96,4.57-1.75,9.17-2.74,13.73c-0.89,4.11-1.4,8.3-2.75,12.31c-0.31-0.49-0.62-0.98-0.93-1.48
			c0.03-3.25,0.39-6.47,0.93-9.67c0.63-0.31,0.8-0.66,0.12-1.11c-0.04-1.26-0.04-2.52,0.39-3.74c0.83-0.47,0.85-1.02,0.17-1.64
			c-0.04-1.27-0.02-2.53,0.41-3.74c0.63-0.31,0.77-0.67,0.1-1.11c0.1-3.07,0.42-6.11,0.99-9.13c0.6-0.32,0.76-0.67,0.1-1.1
			c-0.04-1.27-0.02-2.53,0.4-3.74c0.63-0.31,0.8-0.67,0.11-1.11c-0.04-1.45-0.01-2.88,0.45-4.28c0.61-0.31,0.77-0.67,0.11-1.11
			c-0.04-1.27-0.04-2.53,0.39-3.74c0.81-0.47,0.84-1.03,0.16-1.64c0.25-4.51,0.7-8.99,1.48-13.44c0.61-0.31,0.79-0.66,0.12-1.11
			c-0.04-1.09-0.02-2.18,0.42-3.2c0.6-0.3,0.79-0.65,0.13-1.1c-0.05-0.91-0.03-1.82,0.37-2.67c0.64-0.29,0.84-0.64,0.15-1.11
			c0.44-4.69,1.09-9.36,2.02-13.98c0.62-0.29,0.82-0.64,0.15-1.1c-0.05-0.92,0.01-1.82,0.41-2.67c0.6-0.29,0.81-0.63,0.15-1.1
			c0.67-5.94,1.5-11.86,2.52-17.76c0.63-0.3,0.81-0.65,0.13-1.11c0.12-2.71,0.43-5.39,0.98-8.05c0.6-0.31,0.77-0.67,0.11-1.1
			c-0.04-1.27-0.01-2.53,0.42-3.74C671.77,205.08,671.94,204.73,671.27,204.29z"/>
	</g>
</g>
<path class="st1" d="M1071.16-222.49c-0.19-1.02-0.78-1.6-1.84-1.43c-1.15,0.19-2.06,0.83-1.98,2.08c0.08,1.2,0.93,2.02,2.15,1.78
	C1070.67-220.27,1071.07-221.35,1071.16-222.49z"/>
<g>
	<g>
		<path class="st0" d="M672.73,188.16c-0.42,1.58-0.42,3.2-0.38,4.82c-0.3,0.53-0.38,1.07-0.13,1.65c-0.43,1.4-0.45,2.84-0.4,4.28
			c-0.26,0.35-0.31,0.72-0.1,1.1c-0.44,1.4-0.49,2.83-0.45,4.28c-0.27,0.35-0.32,0.71-0.11,1.11c-0.43,1.22-0.46,2.48-0.42,3.74
			c-0.26,0.35-0.33,0.71-0.11,1.1c-0.55,2.66-0.86,5.34-0.98,8.05c-0.27,0.34-0.35,0.71-0.13,1.11c-1.01,5.89-1.85,11.81-2.52,17.76
			c-0.28,0.33-0.36,0.7-0.15,1.1c-0.4,0.85-0.45,1.75-0.41,2.67c-0.27,0.34-0.36,0.7-0.15,1.1c-0.94,4.62-1.58,9.28-2.02,13.98
			c-0.28,0.34-0.35,0.7-0.15,1.11c-0.39,0.85-0.42,1.75-0.37,2.67c-0.27,0.34-0.34,0.7-0.13,1.1c-0.44,1.03-0.46,2.11-0.42,3.2
			c-0.27,0.34-0.34,0.71-0.12,1.11c-0.79,4.45-1.24,8.93-1.48,13.44c-0.31,0.52-0.4,1.07-0.16,1.64c-0.43,1.22-0.44,2.48-0.39,3.74
			c-0.26,0.35-0.32,0.71-0.11,1.11c-0.46,1.39-0.49,2.83-0.45,4.28c-0.27,0.35-0.34,0.71-0.11,1.11c-0.42,1.22-0.44,2.48-0.4,3.74
			c-0.26,0.35-0.32,0.71-0.1,1.1c-0.58,3.02-0.9,6.06-0.99,9.13c-0.27,0.35-0.32,0.72-0.1,1.11c-0.43,1.22-0.45,2.48-0.41,3.74
			c-0.3,0.52-0.41,1.07-0.17,1.64c-0.43,1.21-0.43,2.47-0.39,3.74c-0.28,0.34-0.34,0.71-0.12,1.11c-0.55,3.2-0.9,6.42-0.93,9.67
			c-0.33,0.67-0.45,1.35-0.17,2.06c-0.27,0.53-0.3,1.1-0.2,1.68c-0.77,3.84-0.62,7.75-0.72,9.9c0.59-2.12,1.42-5.97,1.72-9.91
			c0.34-0.71,0.49-1.44,0.29-2.22l0.01-0.03c1.35-4.01,1.86-8.2,2.75-12.31c0.99-4.56,1.77-9.16,2.74-13.73
			c0.82-3.89,2.15-7.6,4.48-10.88c1.39-1.96,3.09-3.46,5.53-4.01c2.85-0.64,5.13,0.19,6.9,2.48c1.36,1.74,1.98,3.81,2.52,5.9
			c1.3,5.07,1.63,10.28,2.07,15.46c0.61,7.07,0.61,14.17,0.77,21.26c0.08,3.41,0.28,6.82,0.48,10.22c0.06,1.05,0.02,2.14,0.59,3.1
			c0.86,0.27,1.1-0.46,1.47-0.89c0.47-0.54,0.93-1.11,1.29-1.72c3.73-6.39,9.72-9.91,16.23-12.75c2.35-1.02,2.62-1,5.07-0.77
			c-0.31,1.09-1,1.9-1.66,2.71c-2.12,2.62-4.69,4.7-7.63,6.32c-2.89,1.6-5.22,3.76-7.03,6.53c-1.18,1.8-2.49,3.52-4.02,5.05
			c-0.63,0.63-1.31,1.26-2.07,1.7c-2.41,1.38-4.87,0.59-6.09-1.91c-0.76-1.55-1.01-3.25-1.19-4.95c-0.41-4.02-0.52-8.06-0.54-12.1
			c-0.06-10.24-0.34-20.47-1.57-30.65c-0.32-2.68-0.75-5.34-1.69-7.88c-1.16-3.12-3.21-3.51-5.4-1c-2.23,2.56-3.54,5.63-4.25,8.91
			c-1.3,6.05-2.43,12.14-3.69,18.2c-3.03,14.6-5.08,29.36-7.39,44.08c-0.26,1.68-0.32,3.39-0.47,5.09c-0.05,0.54-0.02,1.08-0.1,1.61
			c-0.18,1.29-0.85,2.22-2.21,2.32c-1.36,0.11-2.16-0.75-2.56-1.96c-0.22-0.68-0.33-1.4-0.43-2.1c-1.14-7.86-0.95-15.76-0.71-23.66
			c0.38-12.48,1.76-24.89,3.08-37.3c1.56-14.64,2.98-29.3,4.77-43.91c1.66-13.54,3.77-27.03,5.64-40.54
			c1.83-13.25,3.39-26.54,4.24-39.9c0.17-2.6,0.18-5.2,0.22-7.81c0.01-0.57,0.2-1.24-0.57-1.77c-0.79,0.46-1.07,1.34-1.46,2.08
			c-1.78,3.34-3.15,6.86-4.24,10.47c-3.35,11.08-6.66,22.18-9.91,33.29c-0.83,2.84-1.45,5.74-2.12,8.63
			c-1.64,7.1-3.83,14.01-6.55,20.78c-2,5-3.79,10.08-5.71,15.11c-1.18,3.1-2.31,6.23-3.68,9.25c-3.26,7.2-6.35,14.46-9.13,21.86
			c-0.92,2.44-1.98,4.82-3.32,7.06c-0.41,0.69-0.85,1.4-1.43,1.94c-1.84,1.72-4.43,0.94-5-1.51c-0.2-0.86-0.17-1.78-0.17-2.68
			c0.03-5.93-0.08-11.85-0.45-17.77c-0.22-3.49-0.62-3.66-3.55-1.76c-2.58,1.67-4.78,3.78-6.87,6.01
			c-7.73,8.28-15.87,16.11-24.82,23.08c-4.14,3.22-8.59,5.88-13.38,7.96c-2.67,1.16-5.46,1.74-8.39,1.6
			c-5.06-0.24-8.36-2.86-10.19-7.48c-0.7-1.76-0.97-3.63-1.25-5.5c-0.2-1.33-0.38-2.68-0.79-3.95c-0.59-1.81-1.48-2.24-3.33-1.65
			c-3.2,1.02-6.05,2.73-8.64,4.84c-2.3,1.87-4.6,3.74-6.82,5.69c-10.65,9.39-19.81,20.02-26.75,32.46
			c-0.66,1.17-1.31,2.36-2.08,3.46c-1.07,1.53-2.3,2.03-3.37,1.45c-1.43-0.77-1.21-2.08-0.93-3.32c0.95-4.2,1.92-8.4,2.91-12.59
			c3.81-16.16,7.37-32.38,9.76-48.83c1.33-9.15,2.49-18.32,4.56-27.35c1.55-6.73,3.3-13.42,4.53-20.23
			c0.77-4.26,1.06-8.55,0.9-12.87c-0.05-1.44-0.19-2.87-0.7-4.23c-1.18-3.19-3.7-3.93-6.31-1.75c-2.84,2.38-5.14,5.25-7.07,8.42
			c-0.37,0.61-0.76,1.23-1.04,1.88c-4.88,11.18-10.37,22.09-13.72,33.9c-2.22,7.85-4.8,15.61-7.18,23.42
			c-2.86,9.38-4.16,19.11-6.2,28.67c-2.32,10.88-5.03,21.68-7.04,32.63c-1.6,8.75-2.45,17.6-3.59,26.41
			c-1.33,10.23-2.38,20.51-4.25,30.67c-0.46,2.48-1.16,4.89-2.51,7.06c-0.84,1.35-1.86,2.46-3.66,2.28c-1.8-0.18-2.59-1.46-3.1-2.96
			c-1.69-4.95-2.55-10.08-3.19-15.26c-1-8.14-0.82-16.31-0.81-24.48c0.02-20.47,0.24-40.94,0.94-61.4c0.57-16.6,0.77-33.21,1.6-49.8
			c0.93-18.56,2.31-37.09,4.53-55.55c0.76-6.33,1.16-12.7,0.3-19.07c-0.18-1.34-0.53-2.64-1.1-3.87c-0.39-0.85-0.96-1-1.71-0.46
			c-0.36,0.26-0.72,0.54-1.04,0.85c-2.52,2.45-4.93,5.05-6.4,8.26c-4.33,9.46-9.24,18.66-12.66,28.52
			c-2.15,6.19-4.32,12.37-6.57,18.52c-3.07,8.37-5.12,17-6.9,25.71c-2.43,11.87-5.1,23.68-7.01,35.66
			c-1.22,7.64-1.74,15.34-2.37,23.03c-0.22,2.68-0.48,5.36-0.75,8.04c-0.08,0.8-0.21,1.61-0.41,2.38c-0.17,0.67-0.69,1.06-1.4,1.02
			c-0.71-0.04-1.19-0.49-1.28-1.17c-0.1-0.8-0.1-1.61-0.05-2.42c0.44-7.53,1.07-15.04,1.85-22.54c0.38-3.66,0.67-7.33,0.75-11.01
			c0.45-20.31-0.49-40.56-2.02-60.81c-1.6-21.3-2.71-42.64-3.96-63.97c-0.77-13.08-1.74-26.16-4.17-39.07
			c-0.73-3.88-1.53-7.75-2.62-11.55c-0.25-0.86-0.51-1.72-0.86-2.55c-1.15-2.74-2.14-2.89-4.2-0.64c-1.79,1.95-3.03,4.24-3.96,6.68
			c-2.21,5.79-4.76,11.43-7.33,17.06c-3.41,7.45-5.43,15.4-8.38,23c-5.73,14.74-8.56,30.18-11.36,45.64
			c-2.72,15.03-4.24,30.21-5.54,45.42c-1.12,13.14-2.04,26.31-4.18,39.35c-0.64,3.9-1.27,7.8-2.55,11.55
			c-0.52,1.54-1.11,3.04-2.15,4.32c-0.84,1.03-1.89,1.7-3.29,1.27c-1.43-0.44-1.83-1.58-1.88-2.94c-0.13-3.97,0.29-7.9,0.84-11.81
			c2.67-18.93,5.59-37.83,7.67-56.83c1.6-14.64,4.1-29.15,5.84-43.77c1.01-8.47,1.76-16.96,2.31-25.47
			c0.66-10.31,1.07-20.62,0.8-30.95c-0.06-2.42-0.11-4.85-0.55-7.24c-0.1-0.53-0.14-1.08-0.31-1.58c-0.4-1.16-0.57-2.59-2.14-2.79
			c-1.66-0.21-2.41,1.03-2.97,2.27c-3.65,8.09-8.25,15.74-11.28,24.13c-1.62,4.47-3.46,8.86-5.45,13.18
			c-2.72,5.87-5.01,11.91-7.05,18.04c-1.16,3.49-2.37,6.97-3.7,10.39c-3.19,8.2-5.97,16.54-8.24,25.04
			c-2.41,9.02-5.95,17.69-8.59,26.64c-6.35,21.53-14.42,42.46-21.95,63.58c-4.82,13.53-10.1,26.87-15,40.37
			c-2.92,8.04-6.86,15.6-10.96,23.08c-0.91,1.65-1.99,3.2-3.22,4.64c-1.3,1.51-2.79,2.8-4.6,3.68c-4,1.95-7.47,0.82-9.45-3.15
			c-1.62-3.26-2.31-6.78-2.69-10.37c-0.74-7.09-0.38-14.19,0.25-21.25c1.47-16.46,3.77-32.82,6.87-49.05
			c1.83-9.61,5.05-18.9,7.15-28.45c3.27-14.94,8.49-29.29,12.99-43.86c2.01-6.52,4.14-12.99,6.63-19.34
			c1.22-3.13,2.23-6.34,3.34-9.51c0.56-0.62,0.67-1.35,0.57-2.14c0.04-0.12,0.35-0.13,0.15-0.36c-0.04,0.13-0.08,0.26-0.11,0.4
			c-0.91,0.41-1.24,1.3-1.7,2.08c-6.32,10.31-12.45,20.73-17.96,31.51c-17.82,34.89-33.36,70.74-46.71,107.59
			c-6.54,18.07-12.17,36.42-18.39,54.59c-1.86,5.42-3.12,11.05-4.72,16.57c-0.85,2.93-1.88,5.81-3.34,8.5
			c-0.73,1.35-1.56,2.63-2.69,3.68c-0.95,0.89-2.02,1.6-3.39,0.98c-1.28-0.58-1.37-1.78-1.32-2.99c0.16-4.13,0.62-8.24,1.29-12.31
			c1.92-11.6,4.02-23.17,5.86-34.78c1.6-10.1,2.94-20.25,4.39-30.38c1.5-10.49,3.6-20.87,5.62-31.26
			c2.26-11.63,3.91-23.37,5.87-35.05c1.72-10.28,4.17-20.39,6.47-30.55c2.38-10.5,4.01-21.16,6.58-31.63
			c1.48-6.01,3.03-12.01,4.49-18.02c0.4-1.63,0.58-3.31,0.86-4.93c-1.11-0.36-1.31,0.38-1.64,0.82c-1.15,1.51-1.99,3.19-2.81,4.89
			c-2.54,5.25-5.11,10.48-7.62,15.75c-1.11,2.35-2.16,4.74-3.11,7.16c-6.73,17.31-13.98,34.4-21.41,51.42
			c-5.17,11.85-10.68,23.53-16,35.3c-4.14,9.16-8.58,18.17-12.79,27.3c-2.96,6.42-6.72,12.48-10.15,18.68
			c-0.87,1.58-2,2.98-3.39,4.15c-0.76,0.64-1.58,1.2-2.57,1.42c-2.16,0.48-3.53-0.55-3.54-2.78c0-1.16,0.18-2.33,0.4-3.47
			c3.35-17.82,5.94-35.77,9.22-53.6c1.62-8.82,3.83-17.53,5.59-26.33c1.73-8.63,2.77-17.37,3.39-26.15c0.12-1.7,0.09-3.41,0.01-5.12
			c-0.13-3.18-0.68-3.43-3.47-1.72c-1.55,0.95-2.84,2.18-4.02,3.55c-2.17,2.52-4.35,5.02-6.54,7.52c-1.85,2.09-3.52,4.31-4.92,6.73
			c-2.39,4.12-4.98,8.11-7.76,11.97c-0.42,0.58-0.87,1.15-1.21,1.78c-4.69,8.7-10.68,16.6-15.53,25.2
			c-2.76,4.91-6.22,9.21-10.28,13.07c-0.52,0.49-1.06,0.99-1.66,1.37c-3.26,2.07-7.25,0.21-7.64-3.64c-0.3-2.97,0.14-5.92,0.71-8.83
			c2.5-12.68,4.87-25.38,7.64-38c1.83-8.32,4.32-16.49,6.07-24.84c0.52-2.5,1.2-5.02,0.72-7.61c-1.15-0.27-1.88,0.33-2.55,0.89
			c-0.9,0.74-1.79,1.52-2.52,2.42c-7.5,9.17-15.12,18.25-22.38,27.61c-3.79,4.88-7.15,10.1-11.17,14.83
			c-0.98,1.15-1.64,2.56-2.46,3.85c-1.05,1.67-1.98,3.43-3.18,4.99c-3.98,5.21-7.79,10.53-11.23,16.12c-0.89,1.44-2,2.77-3.17,4
			c-2.41,2.55-4.73,5.16-6.6,8.15c-1.9,3.03-4.84,4.42-8.5,5.37c0.38-1.41,1.25-1.77,2-2.14c2.53-1.24,4.27-3.21,5.61-5.62
			c1.14-2.05,2.56-3.9,4.19-5.59c2.56-2.67,4.69-5.66,6.53-8.87c1.43-2.5,2.99-4.91,4.72-7.2c3.03-4.01,5.95-8.1,8.28-12.58
			c0.25-0.48,0.53-0.95,0.87-1.36c4.82-5.69,8.8-12.01,13.44-17.83c6.55-8.21,13.16-16.37,19.73-24.55
			c1.01-1.26,2.06-2.49,3.29-3.55c0.96-0.82,2.01-1.51,3.21-1.94c3.39-1.19,5.03-0.1,5.08,3.44c0.07,4.73-1.25,9.23-2.29,13.77
			c-1.8,7.87-4.31,15.57-5.88,23.5c-2.19,11.09-4.32,22.2-6.45,33.3c-0.44,2.29-0.75,4.61-0.74,6.95c0,0.91,0.07,1.86,1.02,2.31
			c1.07,0.5,1.9-0.07,2.63-0.8c3.23-3.26,6.38-6.58,8.61-10.65c2.98-5.44,6.28-10.67,9.83-15.75c0.1-0.15,0.22-0.29,0.3-0.45
			c4.49-8.51,10.37-16.15,15.31-24.39c1.71-2.86,3.67-5.53,5.89-8.02c2.22-2.47,4.4-4.98,6.6-7.47c1.99-2.26,4.3-4.1,7.16-5.1
			c3.4-1.2,5.14-0.1,5.64,3.46c0.71,5.03,0.14,10.04-0.38,15.04c-1.1,10.64-2.98,21.14-5.53,31.53
			c-3.13,12.74-5.01,25.71-7.13,38.65c-1.46,8.95-3.03,17.87-4.56,26.81c-0.16,0.96-0.42,1.92-0.24,3.02
			c1.32-0.45,1.84-1.55,2.36-2.53c4.34-8.36,9.49-16.29,13.01-25.08c3.28-8.17,7.54-15.89,11.24-23.86
			c6.12-13.18,11.9-26.52,18.09-39.68c1.68-3.58,3.26-7.19,4.67-10.88c2.02-5.28,4.2-10.5,6.61-15.61c2.45-5.2,4.34-10.63,6.36-16
			c3.5-9.35,8.31-18.1,12.53-27.11c0.88-1.87,2.16-3.52,3.59-5.03c0.61-0.65,1.28-1.28,2.04-1.73c2.18-1.28,3.98-0.36,4.17,2.14
			c0.15,1.88-0.07,3.76-0.41,5.63c-1.28,6.98-3.35,13.77-5.08,20.65c-2.73,10.89-4.29,22.03-7.04,32.9
			c-4.92,19.43-7.88,39.23-11.32,58.94c-1.73,9.9-3.74,19.75-5.54,29.64c-1.67,9.19-2.68,18.47-3.99,27.72
			c-1.71,12.09-3.89,24.1-5.78,36.16c-0.65,4.17-1.21,8.35-1.75,12.53c-0.17,1.32-0.4,2.66-0.12,4.14c1.09-0.45,1.2-1.49,1.54-2.32
			c1.61-4.01,2.68-8.19,3.73-12.36c1.69-6.71,3.64-13.33,5.99-19.84c3.08-8.53,5.31-17.34,8.31-25.89
			c12.13-34.57,25.43-68.65,41.41-101.67c8.53-17.63,17.56-34.96,27.45-51.85c2.73-4.65,5.87-9.03,9.04-13.38
			c0.58-0.79,1.24-1.58,2.02-2.15c1.61-1.18,3.28-0.36,3.47,1.62c0.1,1-0.17,1.96-0.42,2.91c-1.61,6.08-3.61,12.04-5.93,17.87
			c-2.83,7.09-5.25,14.31-7.52,21.6c-2.45,7.88-5.4,15.61-7.67,23.54c-3.11,10.87-5.64,21.9-8.69,32.78
			c-3.66,13.1-5.69,26.49-7.56,39.91c-1.28,9.16-2.52,18.33-2.96,27.57c-0.32,6.72-0.7,13.46,0.79,20.12
			c0.39,1.75,0.85,3.5,1.74,5.08c0.96,1.71,2.02,2.07,3.81,1.32c1.26-0.53,2.28-1.42,3.19-2.43c1.28-1.4,2.31-2.98,3.21-4.64
			c4.3-7.88,8.4-15.86,11.39-24.36c3.31-9.4,7.59-18.42,10.77-27.87c2.35-6.98,4.88-13.88,7.72-20.68
			c3.32-7.96,5.5-16.33,8.73-24.32c4.49-11.08,7.56-22.63,11.34-33.95c3.1-9.28,6.23-18.54,8.8-27.98
			c2.57-9.46,6.74-18.36,9.68-27.69c3.09-9.79,7.77-18.92,11.38-28.48c3.62-9.61,8.44-18.63,12.81-27.87
			c0.5-1.06,1.09-2.07,1.91-2.92c2.66-2.74,6.8-2.16,8.57,1.23c0.97,1.87,1.26,3.91,1.42,5.98c0.66,8.35,0.32,16.69-0.08,25.03
			c-0.66,13.72-1.9,27.39-3.51,41.03c-1.86,11.95-3.73,23.91-5.03,35.93c-2.09,19.44-4.91,38.78-7.36,58.18
			c-0.48,3.79-1.15,7.58-0.65,11.48c0.52-0.92,0.91-1.88,1.18-2.87c1.67-6.34,2.64-12.82,3.48-19.31
			c1.78-13.79,2.59-27.68,3.77-41.53c0.87-10.18,1.92-20.35,3.59-30.44c0.63-3.8,1.55-7.55,1.8-11.4c0.85-4.22,1.71-8.44,2.56-12.66
			c0.86-4.32,1.89-8.6,3.33-12.76c4.9-14.15,9.2-28.53,15.86-42.02c1.71-3.45,3.08-7.07,4.59-10.62c1.06-2.5,2.42-4.8,4.23-6.84
			c0.78-0.88,1.63-1.68,2.67-2.24c2.46-1.31,4.76-0.72,6.3,1.63c0.99,1.52,1.54,3.24,2,4.97c1.99,7.38,3.25,14.9,4.27,22.46
			c1.9,13.98,2.55,28.06,3.32,42.13c1.12,20.61,2.2,41.23,3.52,61.83c0.69,10.75,1.21,21.51,1.18,32.29c0,0.98,0,1.96,0,3.16
			c0.99-0.81,0.92-1.75,1.1-2.58c2.31-10.61,4.14-21.32,6.95-31.82c1.35-5.03,3.1-9.93,4.94-14.8c3.08-8.13,5.41-16.55,9.09-24.46
			c2.69-5.77,5.38-11.55,8.07-17.32c1.92-4.13,4.71-7.62,7.97-10.75c0.19-0.19,0.4-0.37,0.6-0.54c3.43-2.82,6.12-2.13,7.68,1.98
			c1.17,3.07,1.36,6.3,1.48,9.53c0.23,6.21-0.45,12.38-1.13,18.53c-1.45,13.12-2.37,26.28-3.13,39.45
			c-1.32,22.95-1.52,45.93-2.3,68.9c-0.78,22.88-0.99,45.77-0.74,68.67c0.07,7.01,0.95,13.97,2.59,20.8
			c0.27,1.11,0.37,2.3,1.23,3.34c1.32-1.2,1.61-2.8,1.99-4.32c1.41-5.68,1.91-11.5,2.66-17.28c1.73-13.35,2.72-26.79,4.83-40.09
			c1.72-10.82,4.47-21.43,6.67-32.15c1.12-5.45,2.28-10.89,3.26-16.37c1.77-9.94,5.03-19.45,8.06-29.02
			c1.46-4.62,2.77-9.29,4.29-13.89c3.41-10.34,8.25-20.07,12.76-29.94c1.73-3.79,4.4-6.98,7.42-9.84c0.84-0.8,1.74-1.57,2.73-2.18
			c3.59-2.22,7.55-1.2,9.72,2.47c1.22,2.07,1.52,4.38,1.68,6.72c0.45,6.7-0.37,13.29-1.97,19.75c-4.03,16.23-6.27,32.78-8.74,49.28
			c-1.94,12.97-4.83,25.75-7.83,38.5c-0.23,0.96-0.4,1.93-0.57,2.9c-0.02,0.13,0.15,0.3,0.3,0.58c1.4-1.06,2.25-2.55,3.14-3.94
			c4.79-7.49,11.13-13.61,17.4-19.76c3.26-3.2,6.93-5.98,10.5-8.84c2.74-2.21,5.83-3.87,9.16-5.04c4.7-1.64,8.1,0.08,9.59,4.87
			c0.4,1.28,0.62,2.62,0.87,3.94c0.29,1.5,0.53,3.01,1.13,4.43c1.07,2.57,2.97,3.97,5.79,4.06c2.11,0.06,4.1-0.41,6.02-1.23
			c4.06-1.74,7.89-3.87,11.43-6.53c8.99-6.77,17.21-14.39,24.93-22.56c2.73-2.88,5.62-5.55,9-7.65c0.99-0.62,2.01-1.19,3.14-1.51
			c2.99-0.83,5.11,0.13,6.37,2.95c0.74,1.66,0.98,3.44,1.13,5.24c0.18,2.14,0.35,4.29,0.53,6.43c0.01,0.07,0.07,0.14,0.12,0.22
			c0.79,0.2,0.84-0.47,1.03-0.92c6.38-14.64,12.47-29.4,18.22-44.3c2.27-5.88,4.07-11.88,5.46-18.02
			c2.36-10.43,5.82-20.54,8.85-30.78c1.58-5.33,3-10.72,5.03-15.91c1.54-3.94,3.46-7.69,5.76-11.24c0.53-0.82,1.13-1.64,1.86-2.29
			c2.06-1.83,4.63-1.24,5.7,1.29c0.6,1.42,0.75,2.95,0.81,4.48c0.19,4.31,0.11,8.62-0.05,12.92c-0.02,0.62,0.01,1.25,0.02,1.88
			C672.54,186.68,672.46,187.41,672.73,188.16z"/>
	</g>
</g>
<path class="st2" d="M1071.16-222.49c-0.09,1.14-0.49,2.21-1.67,2.44c-1.22,0.23-2.07-0.58-2.15-1.78c-0.08-1.25,0.83-1.9,1.98-2.08
	C1070.39-224.09,1070.97-223.5,1071.16-222.49z"/>
<g>
	<g>
		<path class="st1" d="M504.68,304.16c0.61-1.04,1.06-2.21,2.27-2.76l-0.05-0.05c0.13,1.05-0.02,2.03-0.76,2.85
			C505.65,304.19,505.17,304.17,504.68,304.16z"/>
	</g>
</g>
<g>
	<g>
		<path class="st2" d="M1037.29,292.78c-0.35-1-0.24-1.97,0.2-2.91C1038.49,290.92,1038.59,291.9,1037.29,292.78z"/>
	</g>
</g>
<g>
	<g>
		<path class="st1" d="M506.95,301.4c0.05-0.18,0.1-0.35,0.15-0.53c0.26,0.3-0.15,0.31-0.2,0.47
			C506.9,301.35,506.95,301.4,506.95,301.4z"/>
	</g>
</g>
</svg>
