<?xml version="1.0" encoding="utf-8"?>
<!-- Generator: Adobe Illustrator 23.0.2, SVG Export Plug-In . SVG Version: 6.00 Build 0)  -->
<svg version="1.1" id="Layer_1" xmlns="http://www.w3.org/2000/svg" xmlns:xlink="http://www.w3.org/1999/xlink" x="0px" y="0px"
	 viewBox="0 0 576 792" style="enable-background:new 0 0 576 792;" xml:space="preserve">
<style type="text/css">
	.st0{fill:#DC2117;stroke:#000000;stroke-width:0.25;stroke-miterlimit:10;}
	.st1{fill:#DB443C;}
	.st2{fill:#FFFFFF;}
</style>
<path class="st0" d="M44.26,311.19c-0.02-0.1,0.02-0.17,0.11-0.22c0.23-0.11,0.35-0.3,0.34-0.56c-0.01-0.11,0.02-0.19,0.13-0.26
	c0.22-0.1,0.33-0.27,0.31-0.53c-0.01-0.13,0.03-0.23,0.14-0.3c0.22-0.08,0.32-0.24,0.31-0.48c0.15-0.25,0.29-0.51,0.43-0.76
	c0.23-0.11,0.35-0.29,0.34-0.56c4.22-7.72,8.37-15.48,12.69-23.14c2.57-4.55,5.7-8.77,8.6-13.12c0.15-0.23,0.34-0.43,0.48-0.67
	c4.17-7.12,9.11-13.75,13.29-20.88c2.82-4.81,5.96-9.42,9.21-13.95c0.24-0.33,0.53-0.64,0.73-0.99c4.01-6.89,8.99-13.16,13.08-20.01
	c1.38-2.32,3.06-4.41,4.9-6.37c1.48-1.6,2.76-1.43,4.03,0.38c0.87,1.22,1.19,2.63,1.24,4.09c0.15,3.44,0.25,6.89-0.14,10.31
	c-0.94,8.16-0.95,16.33-0.58,24.53c0.17,3.71,0.18,7.43,0.27,11.14c0.05,1.79,0.18,3.57,0.75,5.3c0.65,2,1.96,2.94,4.1,3.15
	c2.57,0.25,4.39-0.62,5.7-2.8c2.04-3.42,4.19-6.79,5.95-10.38c1.37-2.79,2.88-5.48,4.55-8.08c2.87-4.46,5.01-9.33,7.61-13.94
	c1.86-3.3,3.73-6.57,5.89-9.7c1.02-1.47,2-2.98,2.82-4.55c2.13-4.06,4.86-7.65,8.09-10.89c1.7-1.7,3.29-3.52,4.98-5.24
	c0.82-0.83,1.72-1.6,2.89-1.94c1.58-0.46,2.59,0.14,2.82,1.76c0.24,1.71,0.15,3.45-0.26,5.13c-0.92,3.81-1.92,7.6-2.88,11.4
	c-0.14,0.54-0.25,1.07-0.37,1.61c-0.06,0.27-0.02,0.55,0.29,0.66s0.5-0.08,0.67-0.31c0.13-0.17,0.25-0.33,0.37-0.5
	c3.12-5.03,6.77-9.7,9.74-14.84c1.06-1.85,2.26-3.62,3.57-5.3c2.12-2.72,4.09-5.54,5.94-8.44c2.52-3.96,5.55-7.53,8.74-10.96
	c0.94-1,1.94-1.96,3.21-2.56c2.27-1.06,3.98-0.33,4.54,2.11c0.71,3.12,0.6,6.29,0.07,9.44c-1.3,7.61-3.48,15.01-5.79,22.36
	c-3.8,12.11-6.51,24.45-8.6,36.95c-0.37,2.16-0.55,4.33-0.39,6.53c0.99,0.17,1.22-0.54,1.5-0.99c2.53-4.26,5.42-8.3,7.6-12.76
	c1.67-3.4,3.44-6.75,5.35-10c5.9-10.01,11.24-20.34,17.37-30.24c0.37-0.58,0.73-1.16,1.04-1.78c3.54-7.27,8.44-13.7,12.75-20.48
	c1-1.56,2.16-3.02,3.37-4.44c0.31-0.37,0.63-0.74,0.99-1.04c1.38-1.14,2.72-0.65,2.91,1.15c0.24,2.19,0.22,4.39-0.13,6.59
	c-0.79,5.17-2.05,10.25-3.07,15.38c-2.12,10.73-3.93,21.52-5.52,32.34c-1.73,11.78-3.97,23.47-6.27,35.14
	c-2.45,12.49-4.99,24.95-7.41,37.45c-1.27,6.55-2.31,13.15-2.19,19.86c0.02,1.46,0.21,2.89,0.79,4.23c0.67,1.55,1.86,1.76,3.08,0.6
	c0.56-0.53,0.98-1.16,1.3-1.85c1.74-3.7,4.06-7,6.38-10.33c2.63-3.79,4.69-7.93,6.46-12.19c1.69-4.06,3.26-8.17,5.01-12.21
	c3.79-8.74,6.21-17.92,8.62-27.1c3.13-11.91,6.44-23.76,9.59-35.66c2.41-9.1,6.21-17.62,10.39-26c1.2-2.4,2.45-4.77,3.69-7.15
	c0.35-0.67,0.65-1.38,1.08-1.99c3.53-5,7-10.03,10.64-14.95c1.69-2.28,4.07-3.88,6.41-5.47c0.29-0.19,0.59-0.34,0.91-0.47
	c1.77-0.72,2.8-0.25,3.23,1.59c0.5,2.1,0.4,4.23,0.09,6.36c-0.92,6.29-2.82,12.33-4.97,18.29c-2,5.57-3.82,11.2-5.48,16.87
	c-2,6.8-4.25,13.51-6.63,20.18c-1.79,4.99-3.28,10.07-4.67,15.18c-1.85,6.77-4.02,13.45-5.49,20.31c-0.32,1.48-0.64,2.97-0.53,4.5
	c0.08,1.07,0.62,1.43,1.66,1.12c0.67-0.19,1.22-0.64,1.73-1.1c3.8-3.4,7.51-6.87,10.33-11.19c1.77-2.71,3.73-5.28,5.57-7.94
	c3.49-5.03,6.61-10.28,9.62-15.63c4.53-8.04,8.73-16.23,13.13-24.32c3.97-7.31,8.17-14.5,12.58-21.57c1.89-3.05,4.13-5.84,6.28-8.7
	c0.08-0.11,0.16-0.22,0.25-0.32c0.54-0.6,1.16-1.03,1.99-0.64c0.81,0.38,0.97,1.14,0.83,1.93c-0.15,0.88-0.31,1.77-0.62,2.6
	c-1.62,4.31-2.88,8.75-4.66,13.01c-0.5,1.2-0.83,2.48-1.23,3.72c-0.09,0.29-0.02,0.58,0.24,0.71c0.26,0.13,0.54,0,0.68-0.27
	c0.17-0.3,0.32-0.6,0.47-0.92c1.52-3.31,3.04-6.63,4.54-9.94c4.09-8.95,8.46-17.78,13.37-26.29c5.3-9.18,11.57-17.74,18.72-25.63
	c1.94-2.15,4.04-4.13,6.37-5.87c1.44-1.07,2.92-2.09,4.67-2.58c2.25-0.63,3.63,0.17,4.13,2.45c0.54,2.44,0.42,4.93,0.13,7.4
	c-0.79,6.48-3.02,12.54-5.34,18.59c-5.14,13.35-10.4,26.65-14.84,40.26c-2.94,9.02-4.99,18.32-8.01,27.31
	c-3.9,11.61-6.57,23.59-10.59,35.16c-5.54,15.91-8.23,32.36-10.12,49c-1.08,9.51-1.84,19.04-1.72,28.62
	c0.08,6.13,0.92,12.2,1.39,18.31c0.06,0.76,0.01,1.84,1.04,2.03c0.98,0.18,1.37-0.75,1.81-1.43c0.26-0.4,0.47-0.83,0.68-1.27
	c3.92-8.23,6.77-16.81,8.78-25.71c1.83-8.05,3.17-16.21,5.59-24.11c4.1-13.35,8.9-26.46,14.75-39.16c1.18-2.57,2.2-5.19,3.17-7.84
	c1.38-3.76,3.21-7.31,5.33-10.7c0.57-0.91,1.13-2.1,2.49-1.75c1.4,0.37,1.14,1.69,1.2,2.76c0.19,3.29-0.7,6.41-1.36,9.58
	c-1.31,6.26-2.74,12.5-3.71,18.82c-0.17,1.12-0.4,2.25,0.11,3.5c0.71-1.46,1.5-2.89,2.09-4.38c2.12-5.3,4.23-10.6,6.24-15.95
	c1.75-4.66,4.04-9.04,6.64-13.26c0.58-0.94,1.18-1.87,1.99-2.63c0.68-0.64,1.45-1.1,2.42-0.73c0.97,0.37,1.3,1.2,1.35,2.13
	c0.13,2.96,0.15,5.91-0.21,8.86c-0.31,2.52-0.55,5.06-0.56,7.61c0,0.41-0.01,0.82,0.01,1.24c0.02,0.62-0.02,1.31,0.62,1.64
	c0.76,0.41,1.29-0.22,1.8-0.63c1.68-1.35,3.09-2.94,4.26-4.74c1.28-1.96,2.56-3.92,3.73-5.95c5.27-9.11,10.55-18.22,14.78-27.87
	c2.87-6.55,6.72-12.64,9.51-19.23c2.81-6.68,6.28-13,9.9-19.26c0.79-1.37,1.59-2.75,2.64-3.94c0.64-0.73,1.34-1.51,2.45-1.03
	c0.99,0.42,1.04,1.36,1.03,2.28c-0.02,2.42-0.54,4.78-1.02,7.15c-1.4,6.95-2.69,13.91-3.31,20.98c-0.06,0.68-0.09,1.37-0.09,2.05
	c0,0.18,0.07,0.4,0.38,0.46c0.62-0.1,0.7-0.73,0.89-1.2c2.01-4.84,4.68-9.34,7.19-13.93c6.36-11.59,13.25-22.84,20.39-33.96
	c2.34-3.65,4.94-7.12,8.07-10.17c1.04-1.02,2.13-1.95,3.54-2.45c2.32-0.83,3.79,0.03,4.09,2.48c0.22,1.79,0.09,3.56-0.34,5.33
	c-1.78,7.31-4.46,14.3-6.95,21.38c-2.92,8.3-6.71,16.29-9.21,24.75c-5.19,17.61-11.35,34.93-16.55,52.54
	c-2.12,7.19-4.93,14.17-6.83,21.42c-3.09,11.85-6.28,23.66-9.05,35.59c-1.31,5.63-2.29,11.33-2.53,17.12
	c-0.05,1.1-0.07,2.2,0.01,3.3c0.06,0.83,0.33,1.67,1.26,1.96c0.89,0.29,1.63-0.08,2.21-0.74c0.64-0.72,1.26-1.46,1.83-2.23
	c1.26-1.66,2.16-3.5,3.05-5.38c5.33-11.19,9.92-22.66,14.09-34.33c3.42-9.58,7.42-18.96,11.69-28.19
	c2.94-6.36,6.57-12.4,10.98-17.91c1.24-1.56,2.6-3.02,4.14-4.31c0.58-0.49,1.18-0.96,1.81-1.36c3.58-2.25,6.19-1,6.61,3.22
	c0.37,3.65-0.06,7.28-0.66,10.89c-0.87,5.16-1.95,10.27-2.49,15.48c-0.25,2.47-0.29,4.94-0.25,7.42c0.01,0.97,0.19,1.92,0.58,2.81
	c0.41,0.92,0.9,1,1.48,0.22c0.45-0.6,0.82-1.28,1.12-1.96c2.19-5.14,5.24-9.83,7.81-14.77c1.54-2.96,3.63-5.51,6.14-7.72
	c0.62-0.54,1.27-1.07,1.97-1.48c1.86-1.07,3.09-0.83,4.14,1.02c1.05,1.85,2.56,2.48,4.59,2.56c3.32,0.14,6.26-0.84,8.88-2.79
	c2.04-1.52,3.98-3.17,6-4.71c3.2-2.43,6.53-4.59,10.51-5.55c1.28-0.31,2.58-0.37,3.87-0.5c0.78-0.08,1.34,0.33,1.55,1.08
	c0.24,0.84-0.09,1.5-0.87,1.87c-0.37,0.18-0.78,0.3-1.18,0.35c-4.74,0.65-8.65,3.01-12.32,5.9c-1.89,1.48-3.72,3.06-5.67,4.47
	c-2.84,2.07-5.99,3.29-9.58,3.36c-3.6,0.06-6.75-0.63-8.42-4.14c-0.92,0.13-1.35,0.71-1.85,1.15c-2.32,2.1-4.14,4.59-5.58,7.36
	c-2.51,4.82-5.48,9.38-7.69,14.36c-0.42,0.95-0.97,1.83-1.71,2.57c-1.69,1.69-3.96,1.47-5.26-0.54c-1-1.54-1.29-3.31-1.35-5.13
	c-0.17-5.82,0.76-11.52,1.79-17.21c0.58-3.25,1.13-6.51,1.64-9.77c0.31-1.97,0.3-3.98,0.19-5.97c-0.03-0.74,0.03-1.66-0.7-2.04
	c-0.84-0.45-1.56,0.26-2.21,0.73c-1.42,0.99-2.64,2.2-3.78,3.5c-2.04,2.34-3.82,4.86-5.54,7.44c-5.16,7.78-8.71,16.36-12.49,24.84
	c-4.84,10.88-8.52,22.21-13.22,33.15c-2.44,5.68-5.14,11.27-7.73,16.88c-0.96,2.08-2.23,3.95-3.66,5.72
	c-0.43,0.54-0.89,1.05-1.42,1.5c-2.32,1.92-5.39,0.98-6.21-1.92c-0.48-1.69-0.31-3.41-0.22-5.14c0.25-5.1,1.05-10.12,2.11-15.11
	c2.35-11.04,5.54-21.87,8.2-32.83c2.33-9.58,5.89-18.77,8.64-28.19c4.38-15.06,9.53-29.87,14.03-44.89
	c2.13-7.12,4.53-14.13,7.28-21.05c3.81-9.59,7.31-19.29,10.12-29.23c0.49-1.72,0.86-3.48,0.7-5.3c-0.08-0.9-0.42-1.11-1.2-0.63
	c-0.7,0.42-1.35,0.96-1.94,1.53c-2.24,2.16-4.17,4.58-5.94,7.12c-2.51,3.62-4.81,7.37-7.12,11.12
	c-6.02,9.71-11.63,19.66-17.18,29.63c-1.71,3.07-3.28,6.2-4.7,9.41c-0.79,1.76-1.6,3.5-2.66,5.13c-0.58,0.89-1.26,1.69-2.49,1.47
	c-0.97-0.17-1.55-1.03-1.64-2.57c-0.18-3.1,0.06-6.2,0.41-9.27c0.7-6.02,1.72-11.99,2.97-17.91c0.19-0.9,0.63-1.81,0.3-2.83
	c-0.82,0.25-0.94,1-1.29,1.56c-3.97,6.31-6.75,13.22-10.01,19.88c-4.5,9.21-8.83,18.49-13.41,27.66
	c-3.72,7.44-7.81,14.7-12.32,21.71c-1.5,2.33-3.14,4.53-5.28,6.3c-0.64,0.53-1.29,1.05-2.01,1.43c-2.18,1.15-4.54,0.17-5.32-2.16
	c-0.29-0.86-0.37-1.75-0.35-2.65c0.03-2.68,0.21-5.36,0.53-8.02c0.25-2.12,0.38-4.25,0.25-6.37c-0.74-0.24-0.81,0.41-1.02,0.75
	c-1.85,3.06-3.62,6.18-4.93,9.52c-1.56,3.97-3.21,7.9-4.67,11.91c-1.59,4.35-3.69,8.45-5.8,12.53c-0.29,0.55-0.62,1.08-0.99,1.56
	c-0.54,0.68-1.23,1.13-2.16,0.82c-0.94-0.31-1.19-1.06-1.21-1.95c-0.07-2.83,0.21-5.63,0.67-8.42c1.15-6.93,2.76-13.75,4.17-20.63
	c0.21-1,0.74-2.03,0.31-3.12c-0.73,0.05-0.82,0.59-1.04,0.98c-0.96,1.75-1.86,3.54-2.55,5.41c-2.33,6.33-5.19,12.43-7.9,18.61
	c-3.53,8.07-6.36,16.41-9.26,24.72c-2.52,7.23-4.12,14.69-5.76,22.14c-1.5,6.79-3.13,13.54-5.35,20.12
	c-1.52,4.51-3.7,8.73-5.51,13.12c-0.4,0.95-1,1.81-1.83,2.48c-1.63,1.31-3.57,0.83-4.36-1.12c-0.23-0.57-0.38-1.19-0.43-1.79
	c-0.51-6.37-1.53-12.7-1.69-19.11c-0.24-9.23,0.41-18.42,1.39-27.6c1.07-9.99,2.44-19.94,4.49-29.78
	c1.43-6.81,3.56-13.42,5.72-20.02c3.18-9.75,5.56-19.72,8.72-29.47c3.46-10.67,6.43-21.47,9.47-32.26c1.24-4.37,2.8-8.63,4.38-12.89
	c4.14-11.08,8.31-22.14,12.38-33.25c1.83-4.98,3.33-10.06,3.66-15.41c0.08-1.38,0.02-2.75-0.09-4.12c-0.08-0.96-0.58-1.15-1.4-0.82
	c-1.15,0.47-2.19,1.14-3.2,1.88c-2.17,1.6-4.17,3.39-5.94,5.42c-4.26,4.86-8.25,9.94-12.01,15.23c-5.48,7.72-9.78,16.08-14.19,24.42
	c-3.89,7.37-7.23,14.99-10.79,22.51c-0.76,1.62-1.53,3.23-2.6,4.68c-0.45,0.62-0.92,1.21-1.66,1.51c-1.23,0.49-2.25-0.02-2.44-1.34
	c-0.21-1.37,0-2.74,0.25-4.1c0.63-3.48,1.94-6.73,3.16-10.02c0.25-0.67,1.15-1.64,0.23-2.1c-0.7-0.34-1.02,0.9-1.38,1.51
	c-6.79,11.17-13.01,22.66-19.14,34.21c-6.52,12.28-13.8,24.11-22.17,35.26c-2.92,3.89-6.45,7.13-10.07,10.32
	c-1.16,1.03-2.51,1.67-4.14,1.52c-1.91-0.18-3.01-1.26-3.16-3.16c-0.13-1.67,0.08-3.31,0.5-4.91c3.25-12.58,6.6-25.15,10.91-37.42
	c3.01-8.56,5.63-17.26,8.23-25.96c1.86-6.2,4.33-12.19,6.07-18.41c1.16-4.18,2.37-8.34,2.36-12.74c0-0.55-0.05-1.1-0.09-1.64
	c-0.01-0.11-0.13-0.22-0.21-0.34c-0.54-0.19-0.88,0.21-1.26,0.47c-3.06,2.18-5.71,4.74-7.68,7.97c-1.54,2.52-3.28,4.92-5.14,7.24
	c-1.43,1.77-2.63,3.7-3.65,5.73c-1.84,3.62-3.69,7.23-5.55,10.83c-4.67,9.04-7.75,18.63-10.39,28.42
	c-3.98,14.8-8.18,29.55-12.32,44.32c-0.81,2.92-1.92,5.74-3.06,8.54c-2.17,5.27-4.27,10.59-6.55,15.82
	c-2.34,5.36-4.99,10.58-8.63,15.22c-1.15,1.47-2.08,3.07-2.88,4.76c-0.67,1.43-1.34,2.88-2.28,4.15c-1.03,1.4-2.28,2.39-4.18,2.12
	c-1.8-0.25-2.71-1.51-3.32-3.04c-0.62-1.55-0.87-3.16-0.9-4.84c-0.11-5.74,0.7-11.39,1.77-17.01c3.2-16.76,6.89-33.41,9.94-50.2
	c2.02-11.17,3.89-22.36,5.44-33.6c1.67-12.13,3.95-24.16,6.52-36.14c0.38-1.75,0.7-3.52,0.78-5.31c0.01-0.26,0.06-0.54-0.38-0.83
	c-0.87,0.81-1.47,1.87-2.13,2.87c-4.87,7.33-9.43,14.85-13.83,22.47c-5.84,10.12-11.45,20.39-17.38,30.47
	c-1.61,2.73-3.08,5.52-4.46,8.38c-2.35,4.84-5.43,9.25-8.2,13.85c-0.46,0.76-1.04,1.47-1.77,2c-1.83,1.31-4.12,0.58-4.86-1.53
	c-0.31-0.86-0.31-1.76-0.31-2.65c0.01-4.44,0.95-8.74,1.76-13.07c1.99-10.49,4.54-20.82,7.77-31c2.16-6.81,4.21-13.67,5.47-20.74
	c0.43-2.47,0.39-4.93,0.22-7.41c-0.09-1.32-0.47-1.47-1.51-0.7c-0.6,0.46-1.16,0.97-1.69,1.52c-3.17,3.36-6.14,6.87-8.64,10.76
	c-0.74,1.15-1.45,2.34-2.27,3.45c-6.76,9.04-12.57,18.73-18.89,28.07c-1.04,1.54-1.95,3.16-2.93,4.74
	c-0.37,0.58-0.72,1.19-1.29,1.59c-0.53,0.37-1.1,0.58-1.73,0.26c-0.65-0.32-0.82-0.89-0.82-1.54c0-1.05,0.32-2.04,0.65-3.01
	c2.1-6.05,3.37-12.34,5.05-18.5c0.45-1.64,0.83-3.31,0.56-5.14c-0.89,0.11-1.37,0.73-1.86,1.26c-2.61,2.74-5.22,5.48-7.78,8.26
	c-1.4,1.53-2.47,3.31-3.48,5.1c-1.56,2.75-3.29,5.41-5.08,8.01c-3.17,4.59-5.72,9.55-8.44,14.43c-0.54,0.96-0.96,1.99-1.55,2.91
	c-4.46,6.95-8.06,14.4-12.44,21.39c-0.78,1.22-1.56,2.43-2.65,3.41c-3.41,3.08-9.38,1.69-11.01-2.57c-0.53-1.36-0.83-2.79-0.86-4.23
	c-0.09-10.52-1.21-21.04-0.45-31.56c0.37-4.94,0.98-9.86,0.73-14.83c-0.06-1.18-0.09-2.35-0.49-3.46c-0.59-1.61-1.11-1.72-2.2-0.47
	c-1.71,1.97-3.31,4.04-4.55,6.37c-1.13,2.13-2.39,4.2-3.96,6.03c-1.95,2.25-3.6,4.69-5,7.31c-2.33,4.33-5.59,8-8.26,12.09
	c-2.37,3.63-4.85,7.18-6.95,10.98c-0.4,0.72-0.81,1.45-1.29,2.11c-5.78,7.97-10.51,16.62-16.23,24.63c-2.12,2.97-4,6.1-5.68,9.34
	c-0.95,1.83-2.03,3.6-3.15,5.32c-1.31,2.02-2.55,4.09-3.61,6.24c-1.94,3.96-4.42,7.6-6.72,11.33
	C44.35,311.98,44.36,311.56,44.26,311.19z M325.59,194.32c0.25-0.5-0.09-0.47-0.21-0.6c-0.11,0.16-0.25,0.32-0.34,0.49
	c-0.17,0.31,0.18,0.27,0.29,0.41C325.45,194.47,325.59,194.32,325.59,194.32z M325.43,205.95c-0.18-0.15-0.37-0.38-0.43-0.34
	c-0.23,0.1-0.43,0.32-0.38,0.59c0.02,0.15,0.22,0.25,0.33,0.38C325.1,206.4,325.25,206.19,325.43,205.95z M167.04,221.05
	c0.23-0.47-0.09-0.45-0.18-0.57c-0.1,0.15-0.24,0.3-0.31,0.46c-0.13,0.26,0.16,0.3,0.27,0.43
	C166.93,221.21,167.04,221.05,167.04,221.05z"/>
<path class="st1" d="M-52.79,419.04c0.11,0.41,0.1,0.88,0.55,1.12c-0.52,1.45-1.47,2.68-2.17,4.03c-0.7,1.34-1.8,2.5-1.98,4.11
	c-0.03,0.23-0.27,0.41-0.5,0.33c-0.18-0.06-0.4-0.27-0.43-0.45c-0.13-0.54,0-1.06,0.26-1.56
	C-55.71,424.06-54.47,421.43-52.79,419.04z"/>
<path class="st1" d="M-50.42,414.95c0.01,0.29-0.13,0.5-0.38,0.63C-50.82,415.28-50.69,415.08-50.42,414.95z"/>
<path class="st1" d="M-51.3,416.43c0.01,0.27-0.09,0.43-0.34,0.54C-51.67,416.68-51.53,416.53-51.3,416.43z"/>
<path class="st1" d="M-51.79,417.3c0.01,0.28-0.1,0.47-0.34,0.59C-52.16,417.6-52.04,417.41-51.79,417.3z"/>
<path class="st1" d="M-52.27,418.16c0.03,0.29-0.11,0.5-0.38,0.63C-52.67,418.51-52.54,418.29-52.27,418.16z"/>
<path class="st2" d="M248.34,266.32c0,0-0.08,0.09-0.16,0.19c-0.07-0.09-0.29-0.07-0.18-0.26c0.06-0.11,0.15-0.21,0.22-0.31
	C248.28,266.02,248.5,266,248.34,266.32z"/>
<path class="st2" d="M248.24,273.71c-0.12,0.15-0.21,0.28-0.3,0.41c-0.07-0.08-0.2-0.15-0.21-0.24c-0.04-0.17,0.09-0.31,0.24-0.38
	C248.01,273.47,248.13,273.62,248.24,273.71z"/>
<path class="st2" d="M84.5,318.26c0,0-0.13,0.18-0.26,0.36c-0.13-0.14-0.45-0.19-0.31-0.48c0.09-0.18,0.23-0.34,0.34-0.51
	C84.39,317.76,84.76,317.74,84.5,318.26z"/>
</svg>
