<?xml version="1.0" encoding="utf-8"?>
<!-- Generator: Adobe Illustrator 23.0.2, SVG Export Plug-In . SVG Version: 6.00 Build 0)  -->
<svg version="1.1" id="Layer_1" xmlns="http://www.w3.org/2000/svg" xmlns:xlink="http://www.w3.org/1999/xlink" x="0px" y="0px"
	 viewBox="0 0 707.37 530.27" style="enable-background:new 0 0 707.37 530.27;" xml:space="preserve">
<style type="text/css">
	.st0{fill:#1013EF;}
</style>
<title>Gpa</title>
<path class="st0" d="M2.73,294.99c0.79-1.31,2.07-1.62,3.32-1.94s2.36-0.52,3.54-0.73c7.47-1.28,13.75-5,19.38-9.81
	c3.25-2.79,6.72-4.34,11.07-4c3.38,0.15,6.77,0.05,10.13-0.31c3.7-0.24,7.42-0.24,11.12,0c2.07,0.09,4.15,0.24,6.21,0.17
	c10.88-0.35,21.47,1.58,32,3.93c5.11,1.27,10.28,2.25,15.5,2.93c9.56,1,18.88,0.07,27.71-4.4c8.07-4.09,16.33-7.83,24.61-11.47
	c4.82-2.14,9.95-3.49,15.2-4c12.15-1.18,24.31-0.66,36.47-0.74c5.69,0,11.38,0,17.07-0.31c7.16-0.38,14.32-0.09,21.48,0
	c1.13,0,2.25,0.12,3.35,0.36c7.93,1.81,16,1.41,24,0.86c8.75-0.52,17.21-3.39,24.47-8.3c5.28-3.61,11.06-6.41,17.16-8.33
	c2.98-0.92,6.13-1.13,9.21-0.61c2.9,0.48,5.83,0.72,8.76,0.72c3.53,0.16,7.05,0.56,10.52,1.21c7.33,1,14.49,3.19,22,2.87
	c5.51-0.36,10.99-1.11,16.39-2.24c5.6-1,11.27-1.7,16.92-2.26c6.2-0.77,12.49-0.04,18.35,2.13c2.03,0.72,3.93,1.79,5.6,3.16
	c0.12,0.12,0.26,0.22,0.41,0.31c5.63,2.46,10.87,6,17.39,5.93c5.09-0.06,10.18,0,15.27,0c7.9,0.07,15.62-1.39,23.38-2.58
	c1.79-0.28,3.6-0.48,5.37-0.85c3.06-0.75,6.3-0.2,8.94,1.53c2,1.35,3.76,1.1,5.79,0.16c7.28-3.37,14.52-6.81,21.46-10.86
	c2.75-1.6,5.65-3,8.55-4.28c4.32-2,8.07-0.83,11.35,2.68c2.61,2.69,4.12,6.26,4.23,10c0.09,1.99,0.45,3.95,1.07,5.84
	c0.37,1.72,1.93,2.93,3.69,2.86c1.8-0.03,3.58-0.37,5.26-1c4.08-1.54,7.98-3.52,11.63-5.89c6.51-3.93,12.58-8.47,19-12.48
	c5.71-3.55,11.26-7.37,17.11-10.65c7.53-4.07,15.73-6.76,24.21-7.94c1.01-0.15,2.02-0.37,3-0.66c1.17-0.3,2.41-0.3,3.58,0
	c0.45,0.1,0.79,0.34,0.74,0.88s-0.46,1-0.76,0.86c-2.29-1.23-4.07,0.62-6.1,0.9c-4.91,0.66-9.52,2.42-14.16,4
	c-5.35,1.73-10.37,4.35-14.84,7.76c-0.65,0.56-1.36,1.06-2.11,1.49c-5.86,3-11.15,6.9-16.5,10.66s-10.83,6.71-16,10.45
	c-3.32,2.41-7.52,3.56-11.53,4.23c-6.1,1-8.56-1.06-9.72-7.14c-0.42-2.2-0.68-4.43-1-6.65c-0.49-3.39-2.9-5.49-5.41-7.24
	c-1.54-1.07-3.7-0.81-5.47,0.15c-3.55,1.94-7.21,3.67-10.73,5.7c-6.66,3.82-13.54,7.24-20.61,10.24c-2.2,1.13-4.84,0.96-6.88-0.45
	c-2.42-1.58-5.4-2.05-8.18-1.27c-15,3.25-30.24,4-45.56,3.49c-2.86-0.04-5.66-0.77-8.18-2.13c-0.07-0.04-0.15-0.08-0.23-0.12
	c-4.41-1.9-8.7-4.06-12.86-6.46c-6-3.51-13-3.74-19.89-3c-9.27,1-18.37,3.08-27.63,4.12c-6,0.64-12.07,0.4-18-0.73
	c-5.42-1-10.8-2.34-16.31-2.76c-4.56-0.34-9.12-0.51-13.66-1.14c-3.9-0.53-7.53,0.85-10.94,2.55c-4.63,2.31-9.34,4.43-13.6,7.45
	c-3.23,2.19-6.81,3.8-10.59,4.78c-6.82,1.91-13.74,3.35-20.91,3c-2.33-0.12-4.66-0.14-7-0.1c-3.11,0.1-6.21-0.18-9.25-0.84
	c-1.35-0.3-2.72-0.48-4.1-0.51c-7.42-0.13-14.84-0.29-22.26,0.09c-5.34,0.28-10.68,0.28-16,0.18c-9.23-0.17-18.47-0.28-27.69-0.06
	s-18.29,1.92-26.74,6.18c-7.08,3.57-14.31,6.84-21.55,10.07c-5.74,2.6-11.92,4.13-18.21,4.49c-8.85,0.52-17.38-1.15-25.88-3
	c-10.51-2.35-21.23-3.62-32-3.79c-9.4-0.07-18.8,0.35-28.19,0c-2.18-0.11-4.31,0.68-5.9,2.18c-2.79,2.44-5.77,4.67-8.9,6.66
	c-4.87,3.24-10.43,4.46-16,5.48C5.84,297.15,3.89,296.49,2.73,294.99z"/>
</svg>
